<?xml version="1.0" encoding="utf-8"?>
<!-- Generator: Adobe Illustrator 18.1.1, SVG Export Plug-In . SVG Version: 6.00 Build 0)  -->
<!DOCTYPE svg PUBLIC "-//W3C//DTD SVG 1.1//EN" "http://www.w3.org/Graphics/SVG/1.1/DTD/svg11.dtd" [
	<!ENTITY ns_extend "http://ns.adobe.com/Extensibility/1.0/">
	<!ENTITY ns_ai "http://ns.adobe.com/AdobeIllustrator/10.0/">
	<!ENTITY ns_graphs "http://ns.adobe.com/Graphs/1.0/">
	<!ENTITY ns_vars "http://ns.adobe.com/Variables/1.0/">
	<!ENTITY ns_imrep "http://ns.adobe.com/ImageReplacement/1.0/">
	<!ENTITY ns_sfw "http://ns.adobe.com/SaveForWeb/1.0/">
	<!ENTITY ns_custom "http://ns.adobe.com/GenericCustomNamespace/1.0/">
	<!ENTITY ns_adobe_xpath "http://ns.adobe.com/XPath/1.0/">
]>
<svg version="1.1" id="Livello_1" xmlns:x="&ns_extend;" xmlns:i="&ns_ai;" xmlns:graph="&ns_graphs;"
	 xmlns="http://www.w3.org/2000/svg" xmlns:xlink="http://www.w3.org/1999/xlink" x="0px" y="0px" width="23px" height="26.81px"
	 viewBox="-508.75 287.19 23 26.81" enable-background="new -508.75 287.19 23 26.81" xml:space="preserve">
<metadata>
	<sfw  xmlns="&ns_sfw;">
		<slices></slices>
		<sliceSourceBounds  height="26.81" width="21.51" bottomLeftOrigin="true" x="0" y="0"></sliceSourceBounds>
		<optimizationSettings>
			<targetSettings  targetSettingsID="0" fileFormat="PNG24Format">
				<PNG24Format  transparency="true" matteColor="#FFFFFF" interlaced="false" noMatteColor="false" filtered="false">
					</PNG24Format>
			</targetSettings>
		</optimizationSettings>
	</sfw>
</metadata>
<path fill="#1A171B" d="M-496.2,287.19c-5.36,0-9.71,4.35-9.71,9.71c0,3.12,1.49,5.9,3.79,7.68l-5.88,8.35l1.5,1.07l5.94-8.45
	c1.31,0.66,2.79,1.04,4.36,1.04c5.35,0,9.71-4.35,9.71-9.71S-490.85,287.19-496.2,287.19z M-496.2,305.6c-4.8,0-8.71-3.91-8.71-8.71
	c0-4.8,3.91-8.7,8.71-8.7c4.8,0,8.71,3.91,8.71,8.71C-487.49,301.7-491.4,305.6-496.2,305.6z"/>
</svg>
