<?xml version="1.0" encoding="utf-8"?>
<!-- Generator: Adobe Illustrator 16.0.0, SVG Export Plug-In . SVG Version: 6.00 Build 0)  -->
<!DOCTYPE svg PUBLIC "-//W3C//DTD SVG 1.1//EN" "http://www.w3.org/Graphics/SVG/1.1/DTD/svg11.dtd">
<svg version="1.1" id="Livello_1" xmlns="http://www.w3.org/2000/svg" xmlns:xlink="http://www.w3.org/1999/xlink" x="0px" y="0px"
	 width="169.67px" height="156px" viewBox="0 0 169.67 156" enable-background="new 0 0 169.67 156" xml:space="preserve">
<g opacity="0.77">
	<path fill="#B2414F" d="M38.65,156C15.38,140.88,0,114.65,0,84.83C0,37.98,37.98,0,84.83,0s84.83,37.98,84.83,84.83
		c0,29.82-15.38,56.04-38.65,71.17H38.65z"/>
</g>
<g>
	<path fill="#762E37" d="M77.66,114.49c-1.15-1.71-1.98-3.28-2.47-4.71c-0.5-1.43-0.74-2.78-0.74-4.05c0-2.26,0.43-4.29,1.28-6.08
		c0.85-1.79,1.98-3.42,3.37-4.91c1.39-1.49,2.98-2.89,4.77-4.2c1.79-1.31,3.61-2.61,5.48-3.9c1.87-1.29,3.69-2.61,5.48-3.96
		s3.38-2.84,4.77-4.47c1.39-1.63,2.51-3.43,3.37-5.42c0.85-1.99,1.28-4.23,1.28-6.73c0-2.98-0.59-5.47-1.76-7.48
		c-1.17-2-2.63-3.63-4.38-4.88c-1.75-1.25-3.63-2.14-5.66-2.68s-3.91-0.8-5.66-0.8c-3.42,0-6.51,0.47-9.29,1.4
		c-2.78,0.93-5.16,2.21-7.15,3.84c-1.99,1.63-3.52,3.54-4.62,5.72c-1.09,2.19-1.64,4.51-1.64,6.97c0,3.42,1.11,6.02,3.34,7.8
		c2.22,1.79,5.38,2.68,9.47,2.68c1.87,0,3.53-0.24,5-0.71c1.47-0.48,2.7-0.93,3.69-1.37l0.95,2.09c-1.23,0.56-2.74,1.08-4.53,1.58
		c-1.79,0.5-3.81,0.74-6.08,0.74c-1.83,0-3.6-0.27-5.33-0.8s-3.26-1.34-4.59-2.41c-1.33-1.07-2.39-2.42-3.19-4.05
		c-0.79-1.63-1.19-3.55-1.19-5.78c0-2.82,0.65-5.45,1.94-7.89c1.29-2.44,3.06-4.56,5.3-6.34c2.24-1.79,4.89-3.2,7.95-4.23
		c3.06-1.03,6.37-1.55,9.95-1.55c2.94,0,5.82,0.39,8.64,1.16s5.34,1.94,7.57,3.48c2.22,1.55,4.01,3.49,5.36,5.84
		c1.35,2.34,2.03,5.1,2.03,8.28c0,2.7-0.48,5.15-1.43,7.36s-2.21,4.23-3.78,6.08c-1.57,1.85-3.36,3.54-5.36,5.09
		c-2.01,1.55-4.06,3.02-6.17,4.41s-4.16,2.73-6.17,4.02c-2.01,1.29-3.79,2.61-5.36,3.96c-1.57,1.35-2.83,2.74-3.78,4.17
		s-1.43,3-1.43,4.71c0,1.35,0.28,2.55,0.83,3.61c0.56,1.05,1.17,2.13,1.85,3.25L77.66,114.49z M82.67,125.87
		c0,1.19-0.43,2.21-1.28,3.07c-0.85,0.85-1.9,1.28-3.13,1.28c-1.15,0-2.17-0.43-3.07-1.28s-1.34-1.88-1.34-3.07
		c0-1.15,0.45-2.15,1.34-3.01s1.92-1.28,3.07-1.28c1.23,0,2.27,0.43,3.13,1.28C82.24,123.72,82.67,124.72,82.67,125.87z"/>
</g>
<g>
	<path fill="#FFFFFF" d="M40.16,74.72c-0.34,0.12-0.68,0.26-1.01,0.41c-0.33,0.15-0.65,0.31-0.96,0.47c0.62,0.53,1.12,1.19,1.5,1.97
		c0.38,0.79,0.57,1.69,0.57,2.72c0,0.84-0.11,1.62-0.32,2.32c-0.22,0.71-0.52,1.32-0.9,1.83c-0.39,0.51-0.84,0.91-1.37,1.2
		c-0.53,0.29-1.1,0.43-1.72,0.43c-0.45,0-0.9-0.08-1.34-0.23c-0.44-0.15-0.84-0.39-1.19-0.71c-0.35-0.32-0.63-0.72-0.85-1.2
		c-0.22-0.48-0.32-1.05-0.32-1.72c0-0.74,0.12-1.45,0.37-2.12c0.24-0.67,0.57-1.29,0.99-1.86s0.9-1.09,1.45-1.56
		c0.55-0.47,1.13-0.88,1.74-1.24c-0.32-0.16-0.67-0.28-1.04-0.37c-0.37-0.1-0.75-0.14-1.14-0.14c-0.68,0-1.39,0.13-2.16,0.38
		c-0.76,0.25-1.52,0.64-2.27,1.14c-0.75,0.51-1.46,1.14-2.14,1.88c-0.68,0.75-1.28,1.62-1.81,2.62c-0.53,1-0.94,2.11-1.25,3.34
		c-0.31,1.23-0.46,2.57-0.46,4.04c0,1.48,0.22,2.89,0.65,4.22s1.06,2.5,1.89,3.5c0.83,1.01,1.85,1.8,3.06,2.39
		c1.21,0.59,2.6,0.88,4.16,0.88c0.91,0,1.8-0.14,2.66-0.41c0.87-0.27,1.69-0.65,2.47-1.13c0.77-0.48,1.49-1.06,2.14-1.73
		c0.65-0.67,1.22-1.4,1.69-2.18l0.51,0.3c-0.53,0.98-1.17,1.87-1.92,2.64c-0.75,0.78-1.57,1.43-2.48,1.98
		c-0.91,0.54-1.88,0.96-2.91,1.24c-1.03,0.29-2.09,0.43-3.17,0.43c-1.56,0-3-0.27-4.32-0.82c-1.32-0.55-2.45-1.33-3.41-2.33
		c-0.96-1.01-1.7-2.22-2.24-3.64c-0.54-1.42-0.81-3.01-0.81-4.76c0-1.58,0.17-3.04,0.51-4.37c0.34-1.33,0.81-2.54,1.41-3.63
		c0.6-1.08,1.29-2.04,2.08-2.86c0.79-0.82,1.64-1.52,2.53-2.07c0.9-0.56,1.82-0.98,2.77-1.26c0.95-0.28,1.88-0.42,2.79-0.42
		c0.5,0,0.99,0.07,1.47,0.22c0.48,0.15,0.93,0.35,1.35,0.61c0.44-0.21,0.89-0.38,1.33-0.52c0.44-0.13,0.87-0.24,1.29-0.31
		L40.16,74.72z M39.61,80.26c0-0.91-0.18-1.73-0.54-2.46c-0.36-0.74-0.85-1.34-1.47-1.82c-0.54,0.36-1.05,0.76-1.52,1.22
		c-0.47,0.46-0.88,0.97-1.22,1.53c-0.34,0.56-0.61,1.17-0.81,1.83c-0.19,0.66-0.29,1.36-0.29,2.12c0,0.4,0.05,0.77,0.16,1.1
		c0.1,0.34,0.26,0.63,0.46,0.87c0.2,0.24,0.44,0.44,0.73,0.57c0.29,0.14,0.61,0.21,0.96,0.21c0.6,0,1.12-0.17,1.56-0.52
		c0.44-0.34,0.81-0.77,1.1-1.29c0.29-0.52,0.51-1.07,0.66-1.68C39.54,81.35,39.61,80.79,39.61,80.26z"/>
	<path fill="#FFFFFF" d="M51,79.39c0,0.7-0.12,1.48-0.36,2.34c-0.24,0.86-0.56,1.8-0.97,2.82c-0.41,1.02-0.89,2.11-1.44,3.28
		s-1.13,2.4-1.75,3.69c-0.06,0.53-0.1,1.07-0.14,1.6c-0.04,0.54-0.07,1.08-0.11,1.62c0.14-0.37,0.32-0.79,0.54-1.27
		c0.22-0.48,0.46-0.98,0.73-1.49c0.27-0.51,0.57-1.02,0.89-1.52c0.32-0.5,0.66-0.94,1.02-1.34c0.36-0.39,0.74-0.71,1.15-0.96
		c0.4-0.24,0.82-0.37,1.25-0.37c0.3,0,0.57,0.06,0.81,0.17c0.24,0.11,0.45,0.27,0.62,0.46c0.17,0.2,0.3,0.43,0.4,0.7
		c0.09,0.27,0.14,0.55,0.14,0.86c0,0.4-0.05,0.83-0.16,1.29c-0.11,0.46-0.22,0.93-0.36,1.4c-0.13,0.48-0.25,0.95-0.36,1.43
		c-0.11,0.48-0.16,0.92-0.16,1.35c0,0.34,0.08,0.63,0.25,0.87s0.47,0.36,0.91,0.36c0.31,0,0.61-0.13,0.91-0.38
		c0.3-0.25,0.59-0.58,0.86-0.99c0.28-0.4,0.53-0.86,0.77-1.36c0.24-0.5,0.46-1.01,0.66-1.5c0.2-0.5,0.39-0.96,0.55-1.4
		c0.16-0.44,0.29-0.79,0.39-1.05l0.65,0.17c-0.19,0.5-0.38,1.02-0.58,1.58c-0.2,0.55-0.41,1.1-0.64,1.65
		c-0.23,0.55-0.47,1.07-0.74,1.57s-0.56,0.94-0.87,1.32c-0.32,0.38-0.66,0.69-1.04,0.91c-0.38,0.23-0.8,0.34-1.26,0.34
		c-0.42,0-0.77-0.06-1.05-0.18c-0.28-0.12-0.5-0.29-0.66-0.5c-0.16-0.21-0.27-0.46-0.34-0.76s-0.1-0.62-0.1-0.97
		c0-0.38,0.06-0.8,0.17-1.29c0.11-0.48,0.23-0.98,0.37-1.49c0.14-0.51,0.26-1.03,0.37-1.54c0.11-0.52,0.17-0.99,0.17-1.42
		c0-0.24-0.06-0.46-0.17-0.65c-0.12-0.19-0.32-0.28-0.61-0.28c-0.45,0-0.89,0.16-1.31,0.49c-0.42,0.33-0.82,0.75-1.2,1.27
		c-0.38,0.52-0.73,1.11-1.06,1.76c-0.33,0.65-0.64,1.3-0.91,1.95c-0.28,0.65-0.52,1.26-0.74,1.85c-0.22,0.59-0.4,1.07-0.56,1.46
		l-0.65-0.1c0-0.05,0-0.13-0.01-0.22c-0.01-0.1-0.01-0.22-0.01-0.39s0-0.37-0.01-0.62c-0.01-0.25-0.01-0.55-0.01-0.9
		c0-1.04,0.03-2.41,0.08-4.12c0.06-1.71,0.19-3.75,0.4-6.13c0.09-1.16,0.22-2.15,0.4-2.98c0.18-0.83,0.38-1.52,0.6-2.08
		c0.22-0.56,0.46-1,0.71-1.34s0.49-0.58,0.72-0.76s0.45-0.28,0.65-0.33c0.2-0.05,0.37-0.07,0.5-0.07c0.51,0,0.91,0.2,1.21,0.6
		S51,78.72,51,79.39z M49.37,77.87c-0.29,0-0.55,0.14-0.77,0.42c-0.23,0.28-0.43,0.68-0.61,1.2c-0.18,0.52-0.34,1.13-0.47,1.85
		c-0.13,0.72-0.25,1.52-0.37,2.4c-0.11,0.88-0.21,1.83-0.29,2.84c-0.08,1.01-0.16,2.07-0.24,3.16c0.52-1,1-1.98,1.45-2.96
		c0.45-0.98,0.84-1.92,1.17-2.81s0.59-1.73,0.79-2.52c0.19-0.78,0.29-1.47,0.29-2.07c0-0.18-0.01-0.36-0.04-0.54
		c-0.03-0.18-0.08-0.35-0.15-0.49c-0.07-0.14-0.17-0.26-0.29-0.35C49.72,77.92,49.56,77.87,49.37,77.87z"/>
	<path fill="#FFFFFF" d="M59.98,96.39c-0.7,0-1.28-0.28-1.73-0.85c-0.46-0.56-0.69-1.42-0.69-2.56c0-0.75,0.15-1.71,0.46-2.88
		c0.3-1.17,0.83-2.49,1.59-3.96l0.61,0.17c-0.07,0.29-0.17,0.68-0.32,1.18s-0.3,1.05-0.45,1.67c-0.15,0.62-0.28,1.26-0.39,1.93
		c-0.11,0.67-0.17,1.31-0.17,1.93c0,0.52,0.04,0.94,0.12,1.27c0.08,0.33,0.18,0.58,0.31,0.76c0.13,0.18,0.28,0.31,0.45,0.37
		c0.17,0.07,0.36,0.1,0.56,0.1c0.32,0,0.62-0.1,0.91-0.3c0.29-0.2,0.56-0.46,0.82-0.79c0.26-0.33,0.5-0.69,0.73-1.1
		c0.23-0.4,0.43-0.81,0.61-1.22c0.18-0.41,0.35-0.8,0.49-1.17c0.14-0.37,0.26-0.69,0.35-0.96l0.65,0.17
		c-0.12,0.33-0.26,0.72-0.42,1.15c-0.16,0.44-0.34,0.89-0.55,1.35c-0.21,0.46-0.43,0.92-0.69,1.36c-0.25,0.44-0.54,0.84-0.86,1.19
		c-0.32,0.35-0.68,0.63-1.07,0.85C60.89,96.28,60.46,96.39,59.98,96.39z M62.67,80.91c0,0.39-0.15,0.69-0.45,0.9
		c-0.3,0.21-0.68,0.31-1.13,0.31c-0.23,0-0.45-0.04-0.66-0.11c-0.21-0.07-0.38-0.17-0.53-0.28c-0.15-0.12-0.27-0.26-0.35-0.42
		s-0.12-0.33-0.12-0.51c0-0.38,0.15-0.68,0.44-0.91c0.29-0.23,0.63-0.35,1.02-0.35c0.28,0,0.53,0.04,0.75,0.12
		c0.22,0.08,0.41,0.19,0.56,0.32c0.15,0.13,0.27,0.28,0.35,0.44C62.63,80.6,62.67,80.76,62.67,80.91z M61.78,80.91
		c0-0.11-0.05-0.21-0.14-0.31c-0.09-0.1-0.24-0.14-0.42-0.14c-0.34,0-0.51,0.13-0.51,0.38c0,0.12,0.05,0.22,0.16,0.31
		c0.1,0.08,0.25,0.12,0.42,0.12c0.17,0,0.29-0.04,0.37-0.11C61.73,81.1,61.78,81.01,61.78,80.91z"/>
	<path fill="#FFFFFF" d="M72.92,88.73c-0.12,0.32-0.24,0.64-0.36,0.95c-0.12,0.31-0.24,0.62-0.38,0.93
		c-0.14,0.31-0.3,0.61-0.49,0.91c-0.19,0.3-0.42,0.6-0.68,0.91l-0.13-0.13c0.29-0.7,0.54-1.41,0.76-2.14
		c0.22-0.73,0.44-1.55,0.66-2.46c-0.06-0.15-0.11-0.29-0.15-0.4c-0.04-0.11-0.08-0.21-0.12-0.31s-0.06-0.19-0.08-0.3
		c-0.02-0.11-0.03-0.22-0.03-0.36c0-0.18,0.02-0.37,0.07-0.59c0.05-0.22,0.12-0.42,0.22-0.61c0.09-0.19,0.2-0.35,0.32-0.47
		c0.12-0.13,0.25-0.19,0.38-0.19c0.15,0,0.28,0.04,0.37,0.11c0.09,0.07,0.17,0.16,0.22,0.27c0.06,0.11,0.09,0.23,0.12,0.35
		c0.02,0.12,0.03,0.24,0.03,0.35c0,0.17-0.02,0.36-0.06,0.57c-0.04,0.22-0.08,0.43-0.13,0.63s-0.09,0.38-0.13,0.54
		c-0.04,0.16-0.06,0.26-0.06,0.3c0.09,0.3,0.24,0.6,0.46,0.91c0.22,0.31,0.46,0.62,0.74,0.95c0.28,0.32,0.57,0.66,0.87,1.01
		c0.3,0.35,0.58,0.71,0.83,1.1c0.25,0.39,0.45,0.8,0.61,1.24c0.16,0.44,0.24,0.9,0.24,1.39c0,0.7-0.1,1.26-0.31,1.69
		c-0.21,0.43-0.48,0.76-0.82,1c0.5-0.2,0.97-0.55,1.4-1.06c0.44-0.51,0.84-1.09,1.21-1.75c0.37-0.66,0.71-1.35,1.03-2.07
		c0.32-0.72,0.59-1.39,0.84-2.01l0.65,0.17c-0.38,0.96-0.77,1.9-1.2,2.82c-0.42,0.92-0.9,1.74-1.43,2.46
		c-0.53,0.72-1.13,1.3-1.8,1.74c-0.67,0.44-1.44,0.66-2.3,0.66c-0.23,0-0.47-0.02-0.71-0.06c-0.24-0.04-0.47-0.1-0.7-0.18
		c-0.23-0.08-0.44-0.2-0.64-0.34c-0.2-0.14-0.37-0.31-0.51-0.51l0.55-0.37c0.1,0.15,0.25,0.3,0.46,0.43c0.21,0.13,0.49,0.2,0.83,0.2
		c0.33,0,0.62-0.07,0.87-0.21c0.25-0.14,0.46-0.33,0.63-0.56c0.17-0.24,0.3-0.52,0.38-0.84c0.08-0.32,0.12-0.66,0.12-1.03
		c0-0.75-0.11-1.4-0.32-1.94c-0.22-0.54-0.47-1.03-0.76-1.45c-0.29-0.43-0.59-0.82-0.9-1.17C73.32,89.46,73.08,89.1,72.92,88.73z"/>
	<path fill="#FFFFFF" d="M82.29,96.39c-0.7,0-1.28-0.28-1.73-0.85c-0.46-0.56-0.69-1.42-0.69-2.56c0-0.75,0.15-1.71,0.46-2.88
		c0.3-1.17,0.83-2.49,1.59-3.96l0.61,0.17c-0.07,0.29-0.17,0.68-0.32,1.18s-0.3,1.05-0.45,1.67c-0.15,0.62-0.28,1.26-0.39,1.93
		c-0.11,0.67-0.17,1.31-0.17,1.93c0,0.52,0.04,0.94,0.12,1.27c0.08,0.33,0.18,0.58,0.31,0.76c0.13,0.18,0.28,0.31,0.45,0.37
		c0.17,0.07,0.36,0.1,0.56,0.1c0.32,0,0.62-0.1,0.91-0.3c0.29-0.2,0.56-0.46,0.82-0.79c0.26-0.33,0.5-0.69,0.73-1.1
		s0.43-0.81,0.61-1.22c0.18-0.41,0.35-0.8,0.49-1.17c0.14-0.37,0.26-0.69,0.35-0.96l0.65,0.17c-0.12,0.33-0.26,0.72-0.42,1.15
		c-0.16,0.44-0.34,0.89-0.55,1.35s-0.43,0.92-0.69,1.36c-0.25,0.44-0.54,0.84-0.86,1.19c-0.32,0.35-0.68,0.63-1.07,0.85
		C83.21,96.28,82.77,96.39,82.29,96.39z M84.98,80.91c0,0.39-0.15,0.69-0.45,0.9c-0.3,0.21-0.68,0.31-1.13,0.31
		c-0.23,0-0.45-0.04-0.66-0.11c-0.21-0.07-0.38-0.17-0.53-0.28c-0.15-0.12-0.27-0.26-0.35-0.42s-0.12-0.33-0.12-0.51
		c0-0.38,0.15-0.68,0.44-0.91c0.29-0.23,0.63-0.35,1.02-0.35c0.28,0,0.53,0.04,0.75,0.12c0.22,0.08,0.41,0.19,0.56,0.32
		c0.15,0.13,0.27,0.28,0.35,0.44C84.95,80.6,84.98,80.76,84.98,80.91z M84.09,80.91c0-0.11-0.05-0.21-0.14-0.31
		c-0.09-0.1-0.24-0.14-0.42-0.14c-0.34,0-0.51,0.13-0.51,0.38c0,0.12,0.05,0.22,0.16,0.31c0.1,0.08,0.25,0.12,0.42,0.12
		c0.17,0,0.29-0.04,0.37-0.11C84.05,81.1,84.09,81.01,84.09,80.91z"/>
	<path fill="#FFFFFF" d="M95.23,88.73c-0.12,0.32-0.24,0.64-0.36,0.95c-0.12,0.31-0.24,0.62-0.38,0.93
		c-0.14,0.31-0.3,0.61-0.49,0.91c-0.19,0.3-0.41,0.6-0.68,0.91l-0.13-0.13c0.29-0.7,0.54-1.41,0.76-2.14
		c0.22-0.73,0.44-1.55,0.66-2.46c-0.06-0.15-0.11-0.29-0.15-0.4c-0.04-0.11-0.08-0.21-0.12-0.31s-0.06-0.19-0.08-0.3
		c-0.02-0.11-0.03-0.22-0.03-0.36c0-0.18,0.03-0.37,0.08-0.59c0.05-0.22,0.12-0.42,0.22-0.61c0.09-0.19,0.2-0.35,0.32-0.47
		c0.12-0.13,0.25-0.19,0.38-0.19c0.16,0,0.28,0.04,0.37,0.11c0.09,0.07,0.17,0.16,0.22,0.27c0.06,0.11,0.09,0.23,0.12,0.35
		c0.02,0.12,0.03,0.24,0.03,0.35c0,0.17-0.02,0.36-0.06,0.57c-0.04,0.22-0.08,0.43-0.13,0.63s-0.09,0.38-0.13,0.54
		c-0.04,0.16-0.06,0.26-0.06,0.3c0.09,0.3,0.24,0.6,0.46,0.91c0.22,0.31,0.46,0.62,0.74,0.95c0.28,0.32,0.57,0.66,0.87,1.01
		c0.3,0.35,0.58,0.71,0.83,1.1c0.25,0.39,0.45,0.8,0.61,1.24s0.24,0.9,0.24,1.39c0,0.7-0.1,1.26-0.31,1.69s-0.48,0.76-0.82,1
		c0.5-0.2,0.97-0.55,1.4-1.06c0.44-0.51,0.84-1.09,1.21-1.75s0.71-1.35,1.03-2.07c0.32-0.72,0.59-1.39,0.84-2.01l0.65,0.17
		c-0.38,0.96-0.78,1.9-1.2,2.82c-0.42,0.92-0.9,1.74-1.43,2.46c-0.53,0.72-1.13,1.3-1.8,1.74c-0.67,0.44-1.44,0.66-2.3,0.66
		c-0.23,0-0.47-0.02-0.71-0.06s-0.47-0.1-0.7-0.18c-0.23-0.08-0.44-0.2-0.64-0.34c-0.2-0.14-0.37-0.31-0.52-0.51l0.55-0.37
		c0.1,0.15,0.25,0.3,0.46,0.43c0.21,0.13,0.49,0.2,0.83,0.2c0.33,0,0.62-0.07,0.87-0.21c0.25-0.14,0.46-0.33,0.63-0.56
		c0.17-0.24,0.3-0.52,0.38-0.84c0.08-0.32,0.12-0.66,0.12-1.03c0-0.75-0.11-1.4-0.32-1.94c-0.22-0.54-0.47-1.03-0.76-1.45
		c-0.29-0.43-0.59-0.82-0.9-1.17C95.63,89.46,95.39,89.1,95.23,88.73z"/>
	<path fill="#FFFFFF" d="M110.9,95.87c0.37,0,0.71-0.1,1.04-0.31c0.33-0.21,0.64-0.48,0.93-0.81c0.29-0.34,0.57-0.72,0.83-1.15
		c0.26-0.43,0.5-0.86,0.71-1.29s0.41-0.86,0.58-1.26c0.17-0.4,0.32-0.76,0.46-1.05l0.65,0.17c-0.14,0.37-0.31,0.78-0.49,1.23
		c-0.18,0.46-0.39,0.92-0.63,1.39c-0.24,0.48-0.5,0.94-0.78,1.39c-0.28,0.45-0.59,0.85-0.94,1.2c-0.34,0.36-0.71,0.64-1.11,0.86
		c-0.4,0.22-0.83,0.32-1.28,0.32c-0.44,0-0.88-0.09-1.33-0.28c-0.38,0.29-0.79,0.52-1.24,0.68c-0.46,0.17-0.96,0.25-1.51,0.25
		c-0.34,0-0.62-0.04-0.83-0.13c-0.21-0.09-0.37-0.2-0.49-0.32c-0.12-0.13-0.2-0.26-0.24-0.39c-0.04-0.13-0.07-0.25-0.07-0.35
		c0-0.22,0.05-0.42,0.15-0.59c0.1-0.17,0.23-0.32,0.4-0.44c0.17-0.12,0.36-0.21,0.57-0.27s0.44-0.09,0.67-0.09
		c0.38,0,0.74,0.07,1.08,0.21c0.34,0.14,0.67,0.28,1,0.44c0.25-0.32,0.48-0.68,0.68-1.08s0.37-0.81,0.5-1.24s0.24-0.85,0.31-1.27
		c0.07-0.42,0.11-0.81,0.11-1.18c0-0.85-0.14-1.47-0.42-1.84c-0.28-0.38-0.62-0.56-1-0.56c-0.43,0-0.85,0.13-1.25,0.4
		s-0.81,0.68-1.23,1.24s-0.84,1.28-1.28,2.15c-0.44,0.87-0.91,1.91-1.4,3.11c-0.05,0.1-0.1,0.21-0.13,0.31
		c-0.03,0.11-0.08,0.22-0.13,0.32c0.1,1.3,0.2,2.56,0.31,3.76c0.1,1.2,0.16,2.27,0.16,3.21c0,1.78-0.21,3.1-0.61,3.96
		c-0.41,0.86-1.04,1.29-1.89,1.29c-0.33,0-0.62-0.08-0.86-0.23c-0.24-0.16-0.45-0.37-0.61-0.63c-0.16-0.27-0.28-0.58-0.36-0.94
		c-0.08-0.36-0.12-0.75-0.12-1.15c0-0.64,0.08-1.35,0.24-2.12c0.16-0.78,0.37-1.58,0.64-2.42s0.57-1.7,0.93-2.58
		c0.35-0.88,0.72-1.77,1.11-2.64c-0.1-1.11-0.19-2.2-0.26-3.26c-0.07-1.07-0.11-2.1-0.11-3.1c0-0.86,0.06-1.54,0.18-2.03
		c0.12-0.49,0.31-0.73,0.56-0.73c0.08,0,0.18,0.02,0.31,0.07c0.13,0.04,0.25,0.11,0.36,0.21c0.11,0.09,0.21,0.21,0.29,0.34
		s0.12,0.29,0.12,0.46c0,0.45-0.06,0.92-0.18,1.39c-0.12,0.47-0.29,0.95-0.5,1.43c0,0.52,0.01,1.05,0.02,1.59
		c0.02,0.54,0.04,1.09,0.08,1.64c0.49-1.02,0.96-1.89,1.43-2.61c0.46-0.73,0.93-1.32,1.39-1.78s0.93-0.79,1.39-1
		c0.46-0.21,0.93-0.32,1.4-0.32c0.41,0,0.78,0.09,1.11,0.27c0.33,0.18,0.62,0.42,0.85,0.72s0.41,0.67,0.54,1.09
		c0.13,0.42,0.19,0.87,0.19,1.36c0,0.9-0.14,1.78-0.43,2.64c-0.29,0.86-0.72,1.61-1.29,2.22C110.36,95.83,110.61,95.87,110.9,95.87z
		 M103.28,103.76c0-0.97-0.03-1.98-0.1-3.01s-0.14-2.07-0.23-3.11c-0.65,1.58-1.19,3.01-1.6,4.28c-0.42,1.27-0.62,2.43-0.62,3.47
		c0,0.5,0.09,0.92,0.28,1.28c0.19,0.36,0.47,0.53,0.85,0.53c0.2,0,0.38-0.05,0.56-0.17c0.17-0.11,0.32-0.3,0.45-0.56
		s0.23-0.62,0.31-1.06C103.24,104.96,103.28,104.41,103.28,103.76z M106.72,96.55c0.34,0,0.66-0.07,0.96-0.2s0.58-0.32,0.83-0.55
		c-0.3-0.14-0.58-0.27-0.84-0.38c-0.26-0.11-0.51-0.17-0.76-0.17c-0.42,0-0.71,0.08-0.87,0.24s-0.24,0.32-0.24,0.47
		c0,0.12,0.07,0.25,0.21,0.38C106.16,96.49,106.4,96.55,106.72,96.55z"/>
	<path fill="#FFFFFF" d="M119.6,96.62c0.62,0,1.21-0.23,1.79-0.68c0.57-0.45,1.02-1.11,1.34-1.97h-0.13c-0.69,0-1.32-0.12-1.9-0.35
		s-1.08-0.55-1.51-0.97c-0.43-0.41-0.76-0.91-1-1.49c-0.24-0.58-0.37-1.22-0.37-1.92c0-0.39,0.05-0.78,0.16-1.18
		s0.27-0.76,0.49-1.07c0.22-0.32,0.51-0.57,0.86-0.77c0.35-0.2,0.77-0.3,1.26-0.3c0.4,0,0.79,0.08,1.18,0.24
		c0.39,0.16,0.74,0.43,1.05,0.82c0.31,0.39,0.56,0.91,0.75,1.57c0.19,0.66,0.29,1.49,0.29,2.5c0,0.38-0.02,0.75-0.05,1.12
		c-0.03,0.37-0.09,0.73-0.18,1.09c0.43-0.08,0.82-0.21,1.15-0.41s0.64-0.44,0.9-0.72c0.26-0.28,0.49-0.6,0.69-0.96
		s0.38-0.74,0.55-1.15l0.65,0.17c-0.23,0.63-0.5,1.17-0.81,1.61c-0.3,0.44-0.63,0.81-0.98,1.11s-0.71,0.53-1.1,0.69
		s-0.78,0.27-1.19,0.32c-0.15,0.54-0.36,1.05-0.61,1.53c-0.26,0.47-0.56,0.89-0.93,1.24c-0.37,0.36-0.79,0.63-1.27,0.84
		c-0.48,0.2-1.02,0.31-1.62,0.31c-0.5,0-1-0.1-1.5-0.31c-0.5-0.21-0.96-0.52-1.36-0.95c-0.4-0.43-0.73-0.96-0.98-1.61
		c-0.25-0.65-0.37-1.42-0.37-2.32c0-0.59,0.07-1.16,0.21-1.73s0.33-1.1,0.58-1.6c0.25-0.5,0.54-0.97,0.89-1.41
		c0.34-0.44,0.71-0.82,1.11-1.14l0.25,0.41c-0.25,0.23-0.5,0.52-0.73,0.86c-0.23,0.34-0.44,0.72-0.63,1.14
		c-0.19,0.41-0.34,0.85-0.45,1.31c-0.11,0.46-0.17,0.92-0.17,1.37c0,0.9,0.11,1.65,0.34,2.26c0.23,0.61,0.52,1.1,0.87,1.47
		c0.35,0.37,0.75,0.63,1.2,0.8C118.75,96.54,119.18,96.62,119.6,96.62z M120.55,86.56c-0.3,0-0.58,0.06-0.83,0.19
		c-0.26,0.13-0.48,0.3-0.66,0.52c-0.19,0.22-0.34,0.49-0.45,0.8c-0.11,0.31-0.17,0.65-0.17,1.03c0,0.65,0.11,1.24,0.33,1.76
		c0.22,0.52,0.52,0.96,0.91,1.33s0.83,0.64,1.34,0.84c0.51,0.19,1.06,0.29,1.64,0.29h0.32c0.09-0.34,0.15-0.7,0.18-1.08
		c0.03-0.38,0.05-0.79,0.05-1.23c-0.02-0.85-0.11-1.56-0.26-2.13c-0.15-0.57-0.34-1.03-0.57-1.37c-0.23-0.34-0.51-0.59-0.82-0.73
		C121.23,86.63,120.9,86.56,120.55,86.56z"/>
	<path fill="#FFFFFF" d="M128.1,88.73c-0.12,0.32-0.24,0.64-0.36,0.95c-0.12,0.31-0.24,0.62-0.38,0.93
		c-0.14,0.31-0.3,0.61-0.49,0.91c-0.19,0.3-0.41,0.6-0.68,0.91l-0.13-0.13c0.29-0.7,0.54-1.41,0.76-2.14
		c0.22-0.73,0.44-1.55,0.66-2.46c-0.06-0.15-0.11-0.29-0.15-0.4c-0.04-0.11-0.08-0.21-0.12-0.31s-0.06-0.19-0.08-0.3
		c-0.02-0.11-0.03-0.22-0.03-0.36c0-0.18,0.03-0.37,0.08-0.59c0.05-0.22,0.12-0.42,0.22-0.61c0.09-0.19,0.2-0.35,0.32-0.47
		c0.12-0.13,0.25-0.19,0.38-0.19c0.16,0,0.28,0.04,0.37,0.11c0.09,0.07,0.17,0.16,0.22,0.27c0.06,0.11,0.09,0.23,0.12,0.35
		c0.02,0.12,0.03,0.24,0.03,0.35c0,0.17-0.02,0.36-0.06,0.57c-0.04,0.22-0.08,0.43-0.13,0.63s-0.09,0.38-0.13,0.54
		c-0.04,0.16-0.06,0.26-0.06,0.3c0.09,0.3,0.24,0.6,0.46,0.91c0.22,0.31,0.46,0.62,0.74,0.95c0.28,0.32,0.57,0.66,0.87,1.01
		c0.3,0.35,0.58,0.71,0.83,1.1c0.25,0.39,0.45,0.8,0.61,1.24s0.24,0.9,0.24,1.39c0,0.7-0.1,1.26-0.31,1.69s-0.48,0.76-0.82,1
		c0.5-0.2,0.97-0.55,1.4-1.06c0.44-0.51,0.84-1.09,1.21-1.75s0.71-1.35,1.03-2.07c0.32-0.72,0.59-1.39,0.84-2.01l0.65,0.17
		c-0.38,0.96-0.78,1.9-1.2,2.82c-0.42,0.92-0.9,1.74-1.43,2.46c-0.53,0.72-1.13,1.3-1.8,1.74c-0.67,0.44-1.44,0.66-2.3,0.66
		c-0.23,0-0.47-0.02-0.71-0.06s-0.47-0.1-0.7-0.18c-0.23-0.08-0.44-0.2-0.64-0.34c-0.2-0.14-0.37-0.31-0.52-0.51l0.55-0.37
		c0.1,0.15,0.25,0.3,0.46,0.43c0.21,0.13,0.49,0.2,0.83,0.2c0.33,0,0.62-0.07,0.87-0.21c0.25-0.14,0.46-0.33,0.63-0.56
		c0.17-0.24,0.3-0.52,0.38-0.84c0.08-0.32,0.12-0.66,0.12-1.03c0-0.75-0.11-1.4-0.32-1.94c-0.22-0.54-0.47-1.03-0.76-1.45
		c-0.29-0.43-0.59-0.82-0.9-1.17C128.5,89.46,128.26,89.1,128.1,88.73z"/>
	<path fill="#FFFFFF" d="M148.35,90.16c-0.45,1.23-0.87,2.26-1.24,3.09s-0.73,1.5-1.08,2.01c-0.35,0.51-0.69,0.87-1.04,1.1
		c-0.34,0.22-0.72,0.33-1.13,0.33c-0.5,0-0.92-0.17-1.28-0.52c-0.36-0.35-0.58-0.89-0.66-1.62c-0.36,0.76-0.81,1.39-1.38,1.87
		c-0.56,0.48-1.27,0.72-2.12,0.72c-0.45,0-0.89-0.08-1.3-0.25s-0.78-0.42-1.1-0.77c-0.32-0.35-0.58-0.79-0.77-1.32
		c-0.19-0.53-0.29-1.16-0.29-1.88c0-0.73,0.09-1.42,0.27-2.06c0.18-0.64,0.42-1.23,0.72-1.77s0.64-1.02,1.04-1.44
		c0.39-0.42,0.8-0.78,1.22-1.06c0.42-0.29,0.84-0.51,1.26-0.66c0.42-0.16,0.81-0.23,1.16-0.23c0.31,0,0.61,0.04,0.9,0.12
		c0.29,0.08,0.54,0.2,0.77,0.38c0.23,0.17,0.41,0.4,0.55,0.69c0.14,0.29,0.21,0.65,0.21,1.08c0,0.51-0.1,0.95-0.29,1.33
		c-0.19,0.38-0.43,0.69-0.7,0.95c-0.27,0.26-0.55,0.46-0.83,0.62c-0.28,0.15-0.51,0.27-0.67,0.33l-0.2-0.65
		c0.03,0,0.16-0.04,0.37-0.13c0.22-0.09,0.44-0.23,0.68-0.44c0.24-0.21,0.46-0.47,0.66-0.79c0.2-0.32,0.3-0.71,0.3-1.18
		c0-0.53-0.15-0.94-0.45-1.22c-0.3-0.28-0.68-0.42-1.15-0.42c-0.35,0-0.77,0.13-1.24,0.38c-0.48,0.25-0.93,0.65-1.37,1.2
		c-0.44,0.54-0.81,1.23-1.11,2.06s-0.46,1.82-0.46,2.97c0,1.14,0.2,2.01,0.61,2.61c0.4,0.6,0.95,0.9,1.64,0.9
		c0.34,0,0.67-0.1,0.99-0.29s0.61-0.45,0.87-0.77c0.27-0.32,0.5-0.7,0.71-1.12c0.21-0.43,0.39-0.87,0.55-1.32
		c0-0.35,0.04-0.77,0.12-1.25c0.08-0.48,0.21-0.97,0.39-1.47l1.01,0.33c-0.06,0.14-0.11,0.33-0.17,0.56
		c-0.06,0.23-0.11,0.49-0.16,0.76c-0.05,0.28-0.09,0.56-0.12,0.86s-0.05,0.58-0.05,0.86c0,0.86,0.08,1.46,0.26,1.79
		c0.17,0.33,0.47,0.49,0.89,0.49c0.24,0,0.48-0.09,0.72-0.27c0.24-0.18,0.5-0.49,0.77-0.93c0.28-0.44,0.58-1.04,0.91-1.8
		s0.72-1.72,1.16-2.88L148.35,90.16z"/>
</g>
</svg>
