<?xml version="1.0" encoding="utf-8"?>
<!-- Generator: Adobe Illustrator 16.0.0, SVG Export Plug-In . SVG Version: 6.00 Build 0)  -->
<!DOCTYPE svg PUBLIC "-//W3C//DTD SVG 1.1//EN" "http://www.w3.org/Graphics/SVG/1.1/DTD/svg11.dtd">
<svg version="1.1" id="Livello_1" xmlns="http://www.w3.org/2000/svg" xmlns:xlink="http://www.w3.org/1999/xlink" x="0px" y="0px"
	 width="475px" height="95.93px" viewBox="20.38 8.93 475 95.93" enable-background="new 20.38 8.93 475 95.93"
	 xml:space="preserve">
<g>
	<g>
		<path fill="#3F3F3F" d="M156.61,32.49c0,2.45-0.48,4.62-1.44,6.5c-0.96,1.89-2.29,3.45-3.98,4.68c-1.68,1.23-3.52,2.14-5.53,2.71
			c-2.01,0.57-4.13,0.86-6.39,0.86h-5.26v14.23c0,0.77,0.13,1.45,0.38,2.03c0.25,0.58,0.78,1.03,1.57,1.34
			c0.4,0.16,1.1,0.29,2.1,0.43c1,0.13,1.92,0.21,2.76,0.23v2.35h-20.15v-2.35c0.53-0.05,1.3-0.12,2.3-0.23
			c1-0.11,1.71-0.25,2.1-0.43c0.66-0.29,1.14-0.71,1.44-1.26c0.3-0.55,0.45-1.25,0.45-2.12V27.59c0-0.77-0.11-1.47-0.33-2.08
			c-0.22-0.62-0.74-1.08-1.55-1.39c-0.84-0.29-1.67-0.49-2.5-0.61c-0.83-0.12-1.54-0.2-2.13-0.25v-2.35h21.44
			c4.37,0,7.91,1.05,10.64,3.16C155.25,26.17,156.61,28.98,156.61,32.49z M146.55,40.5c0.75-1.06,1.25-2.16,1.49-3.29
			c0.24-1.14,0.36-2.16,0.36-3.06c0-1.26-0.15-2.54-0.45-3.84c-0.3-1.3-0.81-2.44-1.54-3.41c-0.77-1.04-1.79-1.84-3.04-2.41
			c-1.26-0.57-2.82-0.86-4.7-0.86h-4.67v20.75h3.38c2.38,0,4.32-0.37,5.81-1.11C144.68,42.52,145.8,41.6,146.55,40.5z"/>
	</g>
	<g>
		<path fill="#3F3F3F" d="M176.96,67.86h-15.75v-2.18c0.51-0.04,1.03-0.09,1.57-0.13c0.54-0.04,1.01-0.13,1.41-0.26
			c0.62-0.2,1.08-0.55,1.37-1.04c0.3-0.5,0.44-1.14,0.44-1.94V42.18c0-0.7-0.16-1.35-0.48-1.93c-0.32-0.59-0.77-1.07-1.34-1.47
			c-0.42-0.26-1.02-0.49-1.82-0.68c-0.79-0.19-1.52-0.3-2.18-0.35v-2.18l11.51-0.73l0.47,0.46v26.6c0,0.77,0.15,1.41,0.44,1.92
			c0.3,0.51,0.76,0.88,1.4,1.13c0.48,0.2,0.95,0.36,1.41,0.48c0.46,0.12,0.97,0.21,1.55,0.25V67.86L176.96,67.86z M172.83,21.97
			c0,1.26-0.41,2.36-1.24,3.29c-0.83,0.94-1.85,1.41-3.06,1.41c-1.12,0-2.1-0.44-2.93-1.34c-0.83-0.89-1.24-1.91-1.24-3.06
			c0-1.21,0.41-2.27,1.24-3.18c0.83-0.9,1.8-1.36,2.93-1.36c1.26,0,2.29,0.43,3.09,1.27C172.42,19.85,172.83,20.84,172.83,21.97z"/>
	</g>
	<g>
		<path fill="#3F3F3F" d="M211.91,67.27c-1.04,0.38-1.95,0.68-2.73,0.91c-0.78,0.23-1.67,0.35-2.66,0.35c-1.72,0-3.09-0.4-4.12-1.21
			c-1.02-0.81-1.68-1.98-1.97-3.53h-0.2c-1.44,1.59-2.98,2.8-4.62,3.64c-1.65,0.84-3.62,1.26-5.94,1.26c-2.45,0-4.46-0.75-6.04-2.25
			c-1.58-1.5-2.37-3.46-2.37-5.89c0-1.25,0.18-2.38,0.53-3.38c0.35-0.99,0.88-1.89,1.59-2.68c0.55-0.66,1.28-1.25,2.18-1.77
			c0.9-0.52,1.75-0.93,2.55-1.24c0.99-0.38,3.01-1.07,6.04-2.08c3.03-1.02,5.08-1.81,6.14-2.38v-3.28c0-0.29-0.06-0.84-0.18-1.65
			c-0.12-0.82-0.38-1.59-0.78-2.32c-0.44-0.82-1.06-1.53-1.87-2.13c-0.81-0.61-1.95-0.91-3.42-0.91c-1.02,0-1.96,0.17-2.83,0.51
			c-0.87,0.34-1.48,0.7-1.84,1.08c0,0.44,0.11,1.09,0.31,1.95c0.21,0.86,0.31,1.65,0.31,2.38c0,0.77-0.35,1.48-1.04,2.12
			c-0.69,0.64-1.66,0.96-2.89,0.96c-1.1,0-1.91-0.39-2.43-1.17c-0.52-0.78-0.78-1.66-0.78-2.63c0-1.01,0.36-1.98,1.08-2.91
			c0.72-0.93,1.65-1.75,2.8-2.48c0.99-0.62,2.19-1.14,3.61-1.57c1.41-0.43,2.79-0.64,4.14-0.64c1.85,0,3.47,0.13,4.85,0.38
			c1.38,0.25,2.63,0.8,3.76,1.64c1.12,0.82,1.98,1.93,2.56,3.32c0.58,1.4,0.88,3.21,0.88,5.41c0,3.16-0.03,5.95-0.1,8.39
			c-0.07,2.44-0.1,5.1-0.1,7.99c0,0.86,0.15,1.55,0.45,2.05c0.3,0.51,0.76,0.94,1.37,1.29c0.33,0.2,0.85,0.31,1.57,0.33
			c0.71,0.02,1.45,0.03,2.2,0.03L211.91,67.27L211.91,67.27L211.91,67.27z M200.36,49.79c-1.88,0.55-3.52,1.09-4.93,1.63
			c-1.41,0.53-2.73,1.2-3.94,1.99c-1.1,0.75-1.98,1.64-2.62,2.67c-0.64,1.03-0.96,2.25-0.96,3.67c0,1.83,0.48,3.18,1.44,4.04
			c0.96,0.86,2.18,1.29,3.66,1.29c1.57,0,2.95-0.38,4.14-1.14c1.19-0.76,2.19-1.66,3.01-2.71L200.36,49.79z"/>
	</g>
	<g>
		<path fill="#3F3F3F" d="M251.19,67.86h-15.95v-2.18c0.51-0.04,1.07-0.09,1.67-0.13c0.61-0.04,1.11-0.13,1.51-0.26
			c0.62-0.2,1.08-0.54,1.37-1.04c0.3-0.49,0.45-1.14,0.45-1.93V45.53c0-2.32-0.55-4.1-1.64-5.36c-1.09-1.26-2.43-1.89-4-1.89
			c-1.17,0-2.25,0.18-3.22,0.55c-0.97,0.37-1.84,0.81-2.59,1.34c-0.73,0.5-1.31,1.05-1.74,1.64c-0.43,0.58-0.75,1.05-0.95,1.41
			v18.76c0,0.75,0.16,1.37,0.46,1.85c0.31,0.49,0.77,0.86,1.39,1.13c0.47,0.22,0.97,0.39,1.51,0.5c0.54,0.11,1.1,0.19,1.67,0.23
			v2.18h-15.98v-2.18c0.51-0.04,1.03-0.09,1.57-0.13c0.54-0.04,1.01-0.13,1.41-0.26c0.62-0.2,1.07-0.55,1.37-1.04
			c0.3-0.5,0.45-1.14,0.45-1.94V42.18c0-0.75-0.16-1.44-0.48-2.07c-0.32-0.63-0.77-1.14-1.34-1.54c-0.42-0.27-0.92-0.46-1.49-0.58
			c-0.57-0.12-1.19-0.2-1.85-0.25v-2.18l10.86-0.73l0.46,0.46v4.6h0.16c0.53-0.53,1.19-1.16,1.99-1.9c0.79-0.74,1.54-1.34,2.25-1.8
			c0.82-0.53,1.79-0.97,2.91-1.33c1.12-0.35,2.39-0.53,3.8-0.53c3.13,0,5.45,0.98,6.97,2.93c1.51,1.95,2.27,4.55,2.27,7.79v16.98
			c0,0.77,0.13,1.4,0.4,1.87c0.26,0.47,0.72,0.84,1.36,1.11c0.53,0.22,0.99,0.38,1.37,0.46c0.39,0.09,0.92,0.16,1.61,0.2
			L251.19,67.86L251.19,67.86z"/>
	</g>
	<g>
		<path fill="#3F3F3F" d="M286.1,67.27c-1.04,0.38-1.95,0.68-2.73,0.91c-0.78,0.23-1.67,0.35-2.66,0.35c-1.72,0-3.09-0.4-4.12-1.21
			c-1.02-0.81-1.68-1.98-1.97-3.53h-0.2c-1.43,1.59-2.97,2.8-4.62,3.64c-1.64,0.84-3.62,1.26-5.94,1.26c-2.45,0-4.46-0.75-6.04-2.25
			c-1.58-1.5-2.37-3.46-2.37-5.89c0-1.25,0.18-2.38,0.53-3.38c0.35-0.99,0.88-1.89,1.59-2.68c0.55-0.66,1.28-1.25,2.18-1.77
			c0.9-0.52,1.75-0.93,2.55-1.24c0.99-0.38,3-1.07,6.04-2.08c3.03-1.02,5.08-1.81,6.14-2.38v-3.28c0-0.29-0.06-0.84-0.18-1.65
			c-0.12-0.82-0.38-1.59-0.78-2.32c-0.44-0.82-1.07-1.53-1.87-2.13c-0.81-0.61-1.95-0.91-3.42-0.91c-1.02,0-1.96,0.17-2.83,0.51
			c-0.87,0.34-1.48,0.7-1.84,1.08c0,0.44,0.1,1.09,0.31,1.95s0.31,1.65,0.31,2.38c0,0.77-0.35,1.48-1.04,2.12
			c-0.69,0.64-1.66,0.96-2.9,0.96c-1.1,0-1.91-0.39-2.43-1.17c-0.52-0.78-0.78-1.66-0.78-2.63c0-1.01,0.36-1.98,1.08-2.91
			c0.71-0.93,1.65-1.75,2.8-2.48c0.99-0.62,2.2-1.14,3.61-1.57c1.41-0.43,2.79-0.64,4.14-0.64c1.85,0,3.47,0.13,4.85,0.38
			c1.38,0.25,2.63,0.8,3.76,1.64c1.13,0.82,1.98,1.93,2.56,3.32c0.58,1.4,0.88,3.21,0.88,5.41c0,3.16-0.04,5.95-0.1,8.39
			c-0.06,2.44-0.1,5.1-0.1,7.99c0,0.86,0.15,1.55,0.45,2.05c0.29,0.51,0.75,0.94,1.37,1.29c0.33,0.2,0.86,0.31,1.57,0.33
			c0.71,0.02,1.45,0.03,2.2,0.03L286.1,67.27L286.1,67.27L286.1,67.27z M274.55,49.79c-1.88,0.55-3.52,1.09-4.93,1.63
			c-1.41,0.53-2.73,1.2-3.94,1.99c-1.11,0.75-1.98,1.64-2.62,2.67c-0.64,1.03-0.96,2.25-0.96,3.67c0,1.83,0.48,3.18,1.44,4.04
			c0.96,0.86,2.18,1.29,3.66,1.29c1.57,0,2.94-0.38,4.14-1.14c1.19-0.76,2.19-1.66,3.01-2.71L274.55,49.79z"/>
	</g>
	<g>
		<path fill="#3F3F3F" d="M325.38,67.86h-15.95v-2.18c0.51-0.04,1.07-0.09,1.67-0.13c0.61-0.04,1.11-0.13,1.51-0.26
			c0.62-0.2,1.08-0.54,1.37-1.04c0.3-0.49,0.45-1.14,0.45-1.93V45.53c0-2.32-0.55-4.1-1.64-5.36c-1.09-1.26-2.42-1.89-4-1.89
			c-1.17,0-2.24,0.18-3.21,0.55c-0.97,0.37-1.84,0.81-2.59,1.34c-0.73,0.5-1.31,1.05-1.74,1.64c-0.43,0.58-0.75,1.05-0.95,1.41
			v18.76c0,0.75,0.15,1.37,0.46,1.85c0.31,0.49,0.77,0.86,1.39,1.13c0.47,0.22,0.97,0.39,1.51,0.5c0.54,0.11,1.1,0.19,1.67,0.23
			v2.18h-15.99v-2.18c0.51-0.04,1.03-0.09,1.57-0.13c0.54-0.04,1.01-0.13,1.41-0.26c0.62-0.2,1.07-0.55,1.37-1.04
			c0.29-0.5,0.45-1.14,0.45-1.94V42.18c0-0.75-0.16-1.44-0.48-2.07c-0.32-0.63-0.77-1.14-1.34-1.54c-0.42-0.27-0.92-0.46-1.49-0.58
			c-0.57-0.12-1.19-0.2-1.85-0.25v-2.18l10.85-0.73l0.46,0.46v4.6h0.16c0.53-0.53,1.19-1.16,1.99-1.9c0.79-0.74,1.54-1.34,2.25-1.8
			c0.82-0.53,1.79-0.97,2.91-1.33c1.12-0.35,2.39-0.53,3.8-0.53c3.13,0,5.46,0.98,6.96,2.93c1.51,1.95,2.27,4.55,2.27,7.79v16.98
			c0,0.77,0.13,1.4,0.4,1.87c0.26,0.47,0.72,0.84,1.36,1.11c0.53,0.22,0.99,0.38,1.37,0.46c0.39,0.09,0.92,0.16,1.61,0.2
			L325.38,67.86L325.38,67.86z"/>
	</g>
	<g>
		<path fill="#3F3F3F" d="M361.21,51.22c0,2.29-0.36,4.55-1.09,6.77c-0.73,2.22-1.77,4.1-3.11,5.64c-1.53,1.77-3.29,3.08-5.3,3.94
			c-2.01,0.86-4.26,1.29-6.76,1.29c-2.08,0-4.05-0.39-5.93-1.17c-1.88-0.78-3.54-1.92-5-3.42c-1.44-1.48-2.58-3.28-3.43-5.41
			c-0.85-2.13-1.27-4.52-1.27-7.16c0-5.1,1.48-9.27,4.46-12.51c2.97-3.24,6.86-4.86,11.68-4.86c4.57,0,8.34,1.54,11.31,4.62
			C359.73,42,361.21,46.1,361.21,51.22z M354.36,51.28c0-1.65-0.17-3.4-0.5-5.25c-0.33-1.84-0.83-3.4-1.49-4.68
			c-0.71-1.37-1.64-2.47-2.78-3.29c-1.15-0.83-2.55-1.24-4.21-1.24c-1.7,0-3.15,0.42-4.36,1.26c-1.21,0.84-2.18,1.99-2.94,3.44
			c-0.71,1.34-1.2,2.88-1.49,4.6c-0.29,1.72-0.43,3.39-0.43,4.99c0,2.12,0.17,4.08,0.51,5.87c0.34,1.8,0.89,3.4,1.64,4.82
			c0.75,1.41,1.7,2.52,2.83,3.32c1.14,0.81,2.55,1.2,4.22,1.2c2.76,0,4.95-1.33,6.57-4C353.56,59.67,354.36,55.98,354.36,51.28z"/>
	</g>
	<g>
		<path fill="#3F3F3F" d="M386.06,66.44c-1.43,0.6-2.79,1.1-4.07,1.51c-1.28,0.41-2.85,0.61-4.7,0.61c-2.74,0-4.66-0.69-5.78-2.07
			c-1.11-1.38-1.67-3.33-1.67-5.84V38.54h-5.89v-3.17h6.02V25.21h6.03v10.16h9.36v3.18h-9.3v18.23c0,1.37,0.05,2.51,0.15,3.42
			c0.1,0.92,0.33,1.71,0.71,2.4c0.35,0.64,0.88,1.12,1.59,1.46c0.71,0.33,1.65,0.5,2.85,0.5c0.55,0,1.36-0.05,2.43-0.15
			c1.07-0.1,1.82-0.23,2.27-0.38L386.06,66.44L386.06,66.44z"/>
	</g>
	<g>
		<path fill="#3F3F3F" d="M405.12,67.86h-15.75v-2.18c0.51-0.04,1.03-0.09,1.57-0.13c0.54-0.04,1.01-0.13,1.41-0.26
			c0.62-0.2,1.07-0.55,1.37-1.04c0.3-0.5,0.45-1.14,0.45-1.94V42.18c0-0.7-0.16-1.35-0.48-1.93c-0.32-0.58-0.77-1.07-1.34-1.47
			c-0.42-0.26-1.02-0.49-1.82-0.68c-0.8-0.19-1.53-0.3-2.18-0.35v-2.18l11.51-0.73l0.46,0.46v26.6c0,0.77,0.15,1.41,0.44,1.92
			c0.3,0.51,0.76,0.88,1.39,1.13c0.48,0.2,0.96,0.36,1.41,0.48c0.46,0.12,0.98,0.21,1.54,0.25V67.86L405.12,67.86z M400.99,21.97
			c0,1.26-0.41,2.36-1.24,3.29c-0.83,0.94-1.85,1.41-3.06,1.41c-1.13,0-2.1-0.44-2.93-1.34c-0.83-0.89-1.24-1.91-1.24-3.06
			c0-1.21,0.41-2.27,1.24-3.18c0.83-0.9,1.8-1.36,2.93-1.36c1.26,0,2.29,0.43,3.09,1.27C400.59,19.85,400.99,20.84,400.99,21.97z"/>
	</g>
	<g>
		<path fill="#3F3F3F" d="M435,67.86H408.6v-1.75l18.5-28.19h-4.58c-1.92,0-3.43,0.03-4.51,0.1c-1.08,0.07-2.08,0.29-2.98,0.66
			c-0.62,0.24-1.2,0.94-1.74,2.08c-0.54,1.15-1.01,2.65-1.41,4.5h-2.02V35.23h24.95v1.35l-18.76,28.59c0.8,0.02,1.67,0.04,2.62,0.05
			c0.95,0.01,1.98,0.02,3.07,0.02c0.88,0,1.8-0.01,2.76-0.04c0.96-0.02,2.19-0.08,3.69-0.16c0.88-0.05,1.55-0.34,2-0.89
			c0.45-0.55,0.8-1.18,1.04-1.89c0.24-0.64,0.53-1.52,0.88-2.65c0.34-1.13,0.64-2.22,0.91-3.28H435L435,67.86L435,67.86z"/>
	</g>
	<g>
		<path fill="#3F3F3F" d="M455.06,67.86h-15.75v-2.18c0.51-0.04,1.03-0.09,1.57-0.13c0.54-0.04,1.01-0.13,1.41-0.26
			c0.62-0.2,1.08-0.55,1.37-1.04c0.3-0.5,0.45-1.14,0.45-1.94V42.18c0-0.7-0.16-1.35-0.48-1.93c-0.32-0.58-0.77-1.07-1.34-1.47
			c-0.42-0.26-1.02-0.49-1.82-0.68c-0.79-0.19-1.52-0.3-2.18-0.35v-2.18l11.51-0.73l0.46,0.46v26.6c0,0.77,0.15,1.41,0.44,1.92
			c0.3,0.51,0.76,0.88,1.4,1.13c0.48,0.2,0.95,0.36,1.41,0.48c0.46,0.12,0.97,0.21,1.55,0.25V67.86L455.06,67.86z M450.92,21.97
			c0,1.26-0.41,2.36-1.24,3.29c-0.83,0.94-1.85,1.41-3.06,1.41c-1.12,0-2.1-0.44-2.93-1.34c-0.83-0.89-1.24-1.91-1.24-3.06
			c0-1.21,0.41-2.27,1.24-3.18c0.82-0.9,1.8-1.36,2.93-1.36c1.26,0,2.29,0.43,3.09,1.27C450.52,19.85,450.92,20.84,450.92,21.97z"/>
	</g>
	<g>
		<path fill="#3F3F3F" d="M488.09,60.18c-1.37,2.61-3.2,4.68-5.49,6.22c-2.29,1.54-4.93,2.31-7.91,2.31c-2.62,0-4.93-0.46-6.9-1.39
			c-1.97-0.92-3.6-2.18-4.88-3.77c-1.28-1.59-2.23-3.44-2.86-5.56c-0.63-2.12-0.94-4.35-0.94-6.72c0-2.12,0.34-4.2,1.01-6.24
			c0.67-2.04,1.66-3.88,2.96-5.51c1.26-1.57,2.82-2.83,4.68-3.79c1.86-0.96,3.95-1.44,6.27-1.44c2.38,0,4.42,0.37,6.12,1.12
			c1.7,0.75,3.08,1.78,4.14,3.08c1.01,1.23,1.77,2.69,2.27,4.37c0.5,1.68,0.75,3.5,0.75,5.46v2.18h-21.61c0,2.15,0.2,4.09,0.61,5.84
			c0.41,1.75,1.05,3.29,1.93,4.61c0.86,1.28,1.98,2.29,3.38,3.03c1.39,0.74,3.04,1.11,4.96,1.11c1.96,0,3.66-0.46,5.08-1.38
			c1.42-0.92,2.8-2.58,4.12-4.97L488.09,60.18z M480.77,47.74c0-1.23-0.1-2.55-0.31-3.96c-0.21-1.41-0.54-2.58-1.01-3.53
			c-0.51-1.01-1.2-1.83-2.08-2.47c-0.88-0.64-2.02-0.95-3.41-0.95c-2.31,0-4.24,0.96-5.77,2.89c-1.53,1.92-2.37,4.6-2.5,8.03
			L480.77,47.74L480.77,47.74z"/>
	</g>
</g>
<g id="uK1CQa_1_">
	
		<image overflow="visible" width="84" height="87" id="uK1CQa" xlink:href="6152F0B35E9F4EBD.jpg"  transform="matrix(1 0 0 1 24.7144 11.9294)">
	</image>
</g>
<g>
	<path fill="#939A9F" d="M129.71,83.92c0,1.19-0.24,2.18-0.72,2.96s-1.15,1.32-2.02,1.6l2.21,2.3h-1.57l-1.81-2.09l-0.35,0.01
		c-1.37,0-2.42-0.42-3.16-1.25c-0.74-0.84-1.11-2.02-1.11-3.54c0-1.51,0.37-2.68,1.12-3.51c0.74-0.83,1.8-1.25,3.17-1.25
		c1.33,0,2.37,0.42,3.12,1.27C129.33,81.26,129.71,82.43,129.71,83.92z M122.31,83.92c0,1.26,0.27,2.21,0.8,2.86
		c0.54,0.65,1.31,0.97,2.33,0.97c1.03,0,1.8-0.32,2.33-0.97s0.79-1.6,0.79-2.86c0-1.25-0.26-2.2-0.78-2.84
		c-0.52-0.65-1.3-0.97-2.32-0.97c-1.03,0-1.81,0.32-2.35,0.97C122.58,81.74,122.31,82.68,122.31,83.92z"/>
	<path fill="#939A9F" d="M140.68,79.29v6c0,1.06-0.32,1.89-0.96,2.49c-0.64,0.61-1.52,0.91-2.63,0.91s-1.98-0.3-2.59-0.91
		c-0.61-0.61-0.92-1.45-0.92-2.51v-5.98h1.08v6.06c0,0.77,0.21,1.37,0.63,1.78c0.42,0.42,1.05,0.62,1.87,0.62
		c0.78,0,1.39-0.21,1.81-0.63s0.63-1.01,0.63-1.79v-6.04H140.68z"/>
	<path fill="#939A9F" d="M153.09,83.92c0,1.48-0.38,2.65-1.13,3.5c-0.75,0.85-1.79,1.28-3.13,1.28c-1.37,0-2.42-0.42-3.16-1.25
		c-0.74-0.84-1.11-2.02-1.11-3.54c0-1.51,0.37-2.68,1.12-3.51c0.74-0.83,1.8-1.25,3.17-1.25c1.33,0,2.37,0.42,3.12,1.27
		C152.72,81.26,153.09,82.43,153.09,83.92z M145.7,83.92c0,1.26,0.27,2.21,0.8,2.86c0.54,0.65,1.31,0.97,2.33,0.97
		c1.03,0,1.8-0.32,2.33-0.97s0.79-1.6,0.79-2.86c0-1.25-0.26-2.2-0.78-2.84c-0.52-0.65-1.3-0.97-2.32-0.97
		c-1.03,0-1.81,0.32-2.35,0.97C145.96,81.74,145.7,82.68,145.7,83.92z"/>
	<path fill="#939A9F" d="M159.91,88.57h-1.08v-8.32h-2.94v-0.96h6.96v0.96h-2.94V88.57z"/>
	<path fill="#939A9F" d="M166.15,88.57v-9.28h1.08v9.28H166.15z"/>
	<path fill="#939A9F" d="M179.08,83.84c0,1.53-0.42,2.7-1.25,3.51c-0.83,0.81-2.03,1.22-3.59,1.22h-2.57v-9.28h2.84
		c1.44,0,2.56,0.4,3.36,1.2C178.68,81.29,179.08,82.41,179.08,83.84z M177.94,83.88c0-1.21-0.3-2.12-0.91-2.74
		c-0.61-0.61-1.51-0.92-2.71-0.92h-1.57v7.41h1.31c1.29,0,2.25-0.32,2.9-0.95S177.94,85.12,177.94,83.88z"/>
	<path fill="#939A9F" d="M183.05,88.57v-9.28h1.08v9.28H183.05z"/>
	<path fill="#939A9F" d="M194.4,88.57l-1.16-2.95h-3.72l-1.14,2.95h-1.09l3.67-9.32h0.91l3.65,9.32H194.4z M192.91,84.65l-1.08-2.88
		c-0.14-0.36-0.28-0.81-0.43-1.34c-0.09,0.41-0.23,0.85-0.4,1.34l-1.09,2.88H192.91z"/>
	<path fill="#939A9F" d="M205.94,88.57h-1.23l-5.07-7.79h-0.05c0.07,0.91,0.1,1.75,0.1,2.51v5.28h-1v-9.28h1.22l5.06,7.76h0.05
		c-0.01-0.11-0.03-0.48-0.06-1.1s-0.04-1.06-0.03-1.33v-5.33h1.01V88.57z"/>
	<path fill="#939A9F" d="M218.45,83.92c0,1.48-0.38,2.65-1.13,3.5c-0.75,0.85-1.79,1.28-3.13,1.28c-1.37,0-2.42-0.42-3.16-1.25
		c-0.74-0.84-1.11-2.02-1.11-3.54c0-1.51,0.37-2.68,1.12-3.51c0.74-0.83,1.8-1.25,3.17-1.25c1.33,0,2.37,0.42,3.12,1.27
		C218.07,81.26,218.45,82.43,218.45,83.92z M211.05,83.92c0,1.26,0.27,2.21,0.8,2.86c0.54,0.65,1.31,0.97,2.33,0.97
		c1.03,0,1.8-0.32,2.33-0.97s0.79-1.6,0.79-2.86c0-1.25-0.26-2.2-0.78-2.84c-0.52-0.65-1.3-0.97-2.32-0.97
		c-1.03,0-1.81,0.32-2.35,0.97C211.32,81.74,211.05,82.68,211.05,83.92z"/>
	<path fill="#939A9F" d="M235.74,83.92c0,1.48-0.38,2.65-1.13,3.5c-0.75,0.85-1.79,1.28-3.13,1.28c-1.37,0-2.42-0.42-3.16-1.25
		c-0.74-0.84-1.11-2.02-1.11-3.54c0-1.51,0.37-2.68,1.12-3.51c0.74-0.83,1.8-1.25,3.17-1.25c1.33,0,2.37,0.42,3.12,1.27
		C235.37,81.26,235.74,82.43,235.74,83.92z M228.35,83.92c0,1.26,0.27,2.21,0.8,2.86c0.54,0.65,1.31,0.97,2.33,0.97
		c1.03,0,1.8-0.32,2.33-0.97s0.79-1.6,0.79-2.86c0-1.25-0.26-2.2-0.78-2.84c-0.52-0.65-1.3-0.97-2.32-0.97
		c-1.03,0-1.81,0.32-2.35,0.97C228.62,81.74,228.35,82.68,228.35,83.92z"/>
	<path fill="#939A9F" d="M246.96,88.57h-1.23l-5.07-7.79h-0.05c0.07,0.91,0.1,1.75,0.1,2.51v5.28h-1v-9.28h1.22l5.06,7.76h0.05
		c-0.01-0.11-0.03-0.48-0.06-1.1s-0.04-1.06-0.03-1.33v-5.33h1.01V88.57z"/>
	<path fill="#939A9F" d="M251.41,88.57v-9.28h1.08v8.3h4.09v0.98H251.41z"/>
	<path fill="#939A9F" d="M260.06,88.57v-9.28h1.08v9.28H260.06z"/>
	<path fill="#939A9F" d="M272.83,88.57h-1.23l-5.07-7.79h-0.05c0.07,0.91,0.1,1.75,0.1,2.51v5.28h-1v-9.28h1.22l5.06,7.76h0.05
		c-0.01-0.11-0.03-0.48-0.06-1.1c-0.03-0.62-0.04-1.06-0.03-1.33v-5.33h1.01V88.57z"/>
	<path fill="#939A9F" d="M282.45,88.57h-5.17v-9.28h5.17v0.96h-4.09v2.99h3.85v0.95h-3.85v3.42h4.09V88.57z"/>
	<path fill="#939A9F" d="M299.09,83.84c0,1.53-0.42,2.7-1.25,3.51c-0.83,0.81-2.03,1.22-3.59,1.22h-2.57v-9.28h2.84
		c1.44,0,2.56,0.4,3.37,1.2C298.69,81.29,299.09,82.41,299.09,83.84z M297.95,83.88c0-1.21-0.3-2.12-0.91-2.74s-1.51-0.92-2.71-0.92
		h-1.57v7.41h1.31c1.29,0,2.25-0.32,2.9-0.95C297.62,86.06,297.95,85.12,297.95,83.88z"/>
	<path fill="#939A9F" d="M308.23,88.57h-5.17v-9.28h5.17v0.96h-4.09v2.99h3.85v0.95h-3.85v3.42h4.09V88.57z"/>
	<path fill="#939A9F" d="M312.18,88.57v-9.28h1.08v8.3h4.09v0.98H312.18z"/>
	<path fill="#939A9F" d="M320.83,88.57v-9.28h1.08v8.3H326v0.98H320.83z"/>
	<path fill="#939A9F" d="M335.31,88.57l-1.16-2.95h-3.72l-1.14,2.95h-1.09l3.67-9.32h0.91l3.65,9.32H335.31z M333.82,84.65
		l-1.08-2.88c-0.14-0.36-0.28-0.81-0.43-1.34c-0.09,0.41-0.23,0.85-0.4,1.34l-1.09,2.88H333.82z"/>
	<path fill="#939A9F" d="M350.76,82c0,0.94-0.32,1.66-0.96,2.17c-0.64,0.51-1.56,0.76-2.75,0.76h-1.09v3.65h-1.08v-9.28h2.41
		C349.6,79.29,350.76,80.19,350.76,82z M345.95,84h0.97c0.96,0,1.65-0.16,2.08-0.46c0.43-0.31,0.64-0.8,0.64-1.49
		c0-0.61-0.2-1.07-0.6-1.37c-0.4-0.3-1.03-0.45-1.88-0.45h-1.21V84z"/>
	<path fill="#939A9F" d="M354.6,88.57v-9.28h1.08v9.28H354.6z"/>
	<path fill="#939A9F" d="M365.96,88.57l-1.16-2.95h-3.72l-1.14,2.95h-1.09l3.67-9.32h0.91l3.65,9.32H365.96z M364.46,84.65
		l-1.08-2.88c-0.14-0.36-0.28-0.81-0.43-1.34c-0.09,0.41-0.23,0.85-0.4,1.34l-1.09,2.88H364.46z"/>
	<path fill="#939A9F" d="M377.5,88.57h-1.23l-5.07-7.79h-0.05c0.07,0.91,0.1,1.75,0.1,2.51v5.28h-1v-9.28h1.22l5.06,7.76h0.05
		c-0.01-0.11-0.03-0.48-0.06-1.1c-0.03-0.62-0.04-1.06-0.03-1.33v-5.33h1.01V88.57z"/>
	<path fill="#939A9F" d="M387.78,88.57l-1.16-2.95h-3.72l-1.14,2.95h-1.09l3.67-9.32h0.91l3.65,9.32H387.78z M386.29,84.65
		l-1.08-2.88c-0.14-0.36-0.28-0.81-0.43-1.34c-0.09,0.41-0.23,0.85-0.4,1.34l-1.09,2.88H386.29z"/>
	<path fill="#939A9F" d="M398.42,88.57h-1.08v-9.28h5.17v0.96h-4.09v3.4h3.85v0.96h-3.85V88.57z"/>
	<path fill="#939A9F" d="M405.95,88.57v-9.28h1.08v9.28H405.95z"/>
	<path fill="#939A9F" d="M419.53,83.92c0,1.48-0.38,2.65-1.13,3.5c-0.75,0.85-1.79,1.28-3.13,1.28c-1.37,0-2.42-0.42-3.17-1.25
		c-0.74-0.84-1.11-2.02-1.11-3.54c0-1.51,0.37-2.68,1.12-3.51c0.75-0.83,1.8-1.25,3.17-1.25c1.33,0,2.38,0.42,3.12,1.27
		C419.16,81.26,419.53,82.43,419.53,83.92z M412.13,83.92c0,1.26,0.27,2.21,0.8,2.86s1.31,0.97,2.33,0.97c1.03,0,1.8-0.32,2.33-0.97
		s0.79-1.6,0.79-2.86c0-1.25-0.26-2.2-0.78-2.84s-1.3-0.97-2.32-0.97c-1.03,0-1.81,0.32-2.34,0.97S412.13,82.68,412.13,83.92z"/>
	<path fill="#939A9F" d="M424.58,84.71v3.86h-1.08v-9.28h2.55c1.14,0,1.98,0.22,2.52,0.65c0.54,0.44,0.82,1.09,0.82,1.97
		c0,1.23-0.62,2.06-1.87,2.49l2.52,4.17h-1.28l-2.25-3.86H424.58z M424.58,83.79h1.48c0.76,0,1.32-0.15,1.68-0.45
		s0.53-0.76,0.53-1.36c0-0.61-0.18-1.06-0.54-1.33c-0.36-0.27-0.94-0.41-1.74-0.41h-1.4V83.79z"/>
	<path fill="#939A9F" d="M438.61,88.57h-5.17v-9.28h5.17v0.96h-4.09v2.99h3.85v0.95h-3.85v3.42h4.09V88.57z"/>
	<path fill="#939A9F" d="M449.81,88.57h-1.23l-5.07-7.79h-0.05c0.07,0.91,0.1,1.75,0.1,2.51v5.28h-1v-9.28h1.22l5.06,7.76h0.05
		c-0.01-0.11-0.03-0.48-0.06-1.1c-0.03-0.62-0.04-1.06-0.03-1.33v-5.33h1.01V88.57z"/>
	<path fill="#939A9F" d="M457.12,88.57h-1.08v-8.32h-2.94v-0.96h6.96v0.96h-2.94V88.57z"/>
	<path fill="#939A9F" d="M463.35,88.57v-9.28h1.08v9.28H463.35z"/>
	<path fill="#939A9F" d="M476.12,88.57h-1.23l-5.07-7.79h-0.05c0.07,0.91,0.1,1.75,0.1,2.51v5.28h-1v-9.28h1.22l5.06,7.76h0.05
		c-0.01-0.11-0.03-0.48-0.06-1.1c-0.03-0.62-0.04-1.06-0.03-1.33v-5.33h1.01V88.57z"/>
	<path fill="#939A9F" d="M486.4,88.57l-1.16-2.95h-3.72l-1.14,2.95h-1.09l3.67-9.32h0.91l3.65,9.32H486.4z M484.91,84.65l-1.08-2.88
		c-0.14-0.36-0.28-0.81-0.43-1.34c-0.09,0.41-0.23,0.85-0.4,1.34l-1.09,2.88H484.91z"/>
</g>
</svg>
