<?xml version="1.0" encoding="utf-8"?>
<!-- Generator: Adobe Illustrator 16.0.0, SVG Export Plug-In . SVG Version: 6.00 Build 0)  -->
<!DOCTYPE svg PUBLIC "-//W3C//DTD SVG 1.1//EN" "http://www.w3.org/Graphics/SVG/1.1/DTD/svg11.dtd">
<svg version="1.1" id="Livello_1" xmlns="http://www.w3.org/2000/svg" xmlns:xlink="http://www.w3.org/1999/xlink" x="0px" y="0px"
	 width="213.68px" height="42.46px" viewBox="0 0 213.68 42.46" enable-background="new 0 0 213.68 42.46" xml:space="preserve">
<g>
	<g>
		<path fill="#FFFFFF" d="M21.02,8.58c0,1.42-0.28,2.68-0.84,3.78c-0.56,1.1-1.33,2-2.31,2.72c-0.98,0.71-2.05,1.24-3.21,1.58
			s-2.4,0.5-3.71,0.5H7.88v8.27c0,0.45,0.08,0.84,0.22,1.18c0.15,0.34,0.45,0.6,0.91,0.78c0.23,0.09,0.64,0.17,1.22,0.25
			c0.58,0.08,1.12,0.12,1.6,0.13v1.37H0.13v-1.37c0.31-0.03,0.76-0.07,1.34-0.13c0.58-0.06,0.99-0.15,1.22-0.25
			c0.38-0.17,0.66-0.41,0.84-0.73c0.17-0.32,0.26-0.73,0.26-1.23V5.73c0-0.45-0.06-0.85-0.19-1.21c-0.13-0.36-0.43-0.63-0.9-0.81
			C2.2,3.55,1.72,3.43,1.24,3.36C0.76,3.29,0.34,3.24,0,3.21V1.85h12.46c2.54,0,4.6,0.61,6.18,1.84
			C20.23,4.91,21.02,6.54,21.02,8.58z M15.17,13.23c0.44-0.62,0.73-1.26,0.87-1.91c0.14-0.66,0.21-1.26,0.21-1.78
			c0-0.73-0.09-1.48-0.26-2.23c-0.17-0.76-0.47-1.42-0.9-1.98c-0.45-0.6-1.04-1.07-1.77-1.4c-0.73-0.33-1.64-0.5-2.73-0.5H7.88
			v12.06h1.96c1.38,0,2.51-0.21,3.38-0.65C14.08,14.41,14.73,13.87,15.17,13.23z"/>
	</g>
	<g>
		<path fill="#FFFFFF" d="M32.84,29.14h-9.15v-1.27c0.3-0.02,0.6-0.05,0.91-0.08c0.31-0.02,0.59-0.08,0.82-0.15
			c0.36-0.12,0.63-0.32,0.8-0.6c0.17-0.29,0.26-0.66,0.26-1.13v-11.7c0-0.41-0.09-0.78-0.28-1.12c-0.19-0.34-0.45-0.62-0.78-0.85
			c-0.24-0.15-0.59-0.28-1.06-0.4c-0.46-0.11-0.88-0.17-1.27-0.2v-1.27l6.69-0.42l0.27,0.27v15.46c0,0.45,0.09,0.82,0.26,1.12
			c0.17,0.3,0.44,0.51,0.81,0.66c0.28,0.12,0.55,0.21,0.82,0.28s0.56,0.12,0.9,0.15V29.14L32.84,29.14z M30.44,2.46
			c0,0.73-0.24,1.37-0.72,1.91c-0.48,0.55-1.08,0.82-1.78,0.82c-0.65,0-1.22-0.26-1.7-0.78c-0.48-0.52-0.72-1.11-0.72-1.78
			c0-0.7,0.24-1.32,0.72-1.85C26.72,0.27,27.29,0,27.94,0c0.73,0,1.33,0.25,1.8,0.74C30.21,1.23,30.44,1.81,30.44,2.46z"/>
	</g>
	<g>
		<path fill="#FFFFFF" d="M53.16,28.79c-0.6,0.22-1.13,0.4-1.59,0.53c-0.45,0.13-0.97,0.2-1.55,0.2c-1,0-1.8-0.23-2.39-0.7
			c-0.59-0.47-0.98-1.15-1.15-2.05h-0.12c-0.84,0.92-1.73,1.63-2.69,2.12c-0.96,0.49-2.1,0.73-3.45,0.73
			c-1.42,0-2.59-0.44-3.51-1.31c-0.92-0.87-1.38-2.01-1.38-3.42c0-0.73,0.1-1.38,0.31-1.96c0.2-0.58,0.51-1.1,0.92-1.56
			c0.32-0.38,0.74-0.73,1.27-1.03c0.52-0.3,1.02-0.54,1.48-0.72c0.58-0.22,1.75-0.62,3.51-1.21c1.76-0.59,2.95-1.05,3.57-1.38v-1.91
			c0-0.17-0.03-0.49-0.1-0.96c-0.07-0.48-0.22-0.92-0.45-1.35c-0.26-0.48-0.62-0.89-1.09-1.24c-0.47-0.35-1.13-0.53-1.99-0.53
			c-0.59,0-1.14,0.1-1.64,0.3c-0.51,0.2-0.86,0.41-1.07,0.63c0,0.26,0.06,0.63,0.18,1.13c0.12,0.5,0.18,0.96,0.18,1.38
			c0,0.45-0.2,0.86-0.6,1.23s-0.96,0.56-1.68,0.56c-0.64,0-1.11-0.23-1.41-0.68c-0.3-0.45-0.45-0.97-0.45-1.53
			c0-0.59,0.21-1.15,0.63-1.69c0.42-0.54,0.96-1.02,1.63-1.44c0.58-0.36,1.27-0.66,2.1-0.91c0.82-0.25,1.62-0.37,2.41-0.37
			c1.08,0,2.02,0.08,2.82,0.22s1.53,0.46,2.19,0.95c0.65,0.48,1.15,1.12,1.49,1.93c0.34,0.81,0.51,1.87,0.51,3.14
			c0,1.84-0.02,3.46-0.06,4.88c-0.04,1.42-0.06,2.96-0.06,4.64c0,0.5,0.09,0.9,0.26,1.19c0.17,0.3,0.44,0.55,0.8,0.75
			c0.19,0.12,0.49,0.18,0.91,0.19c0.41,0.01,0.84,0.02,1.28,0.02L53.16,28.79L53.16,28.79L53.16,28.79z M46.45,18.63
			c-1.09,0.32-2.05,0.63-2.87,0.95c-0.82,0.31-1.59,0.7-2.29,1.16c-0.64,0.44-1.15,0.95-1.52,1.55c-0.37,0.6-0.56,1.31-0.56,2.13
			c0,1.06,0.28,1.85,0.84,2.35c0.56,0.5,1.27,0.75,2.13,0.75c0.91,0,1.71-0.22,2.41-0.66c0.69-0.44,1.27-0.96,1.75-1.58L46.45,18.63
			z"/>
	</g>
	<g>
		<path fill="#FFFFFF" d="M75.99,29.14h-9.27v-1.27c0.3-0.02,0.62-0.05,0.97-0.08c0.35-0.02,0.65-0.08,0.88-0.15
			c0.36-0.12,0.63-0.31,0.8-0.6c0.17-0.29,0.26-0.66,0.26-1.12v-9.76c0-1.35-0.32-2.38-0.95-3.11c-0.63-0.73-1.41-1.1-2.32-1.1
			c-0.68,0-1.31,0.1-1.87,0.32c-0.56,0.21-1.07,0.47-1.51,0.78c-0.42,0.29-0.76,0.61-1.01,0.95c-0.25,0.34-0.44,0.61-0.55,0.82v10.9
			c0,0.44,0.09,0.8,0.27,1.08c0.18,0.28,0.45,0.5,0.81,0.66c0.27,0.13,0.56,0.23,0.88,0.29c0.31,0.06,0.64,0.11,0.97,0.13v1.27
			h-9.29v-1.27c0.3-0.02,0.6-0.05,0.91-0.08c0.31-0.02,0.59-0.08,0.82-0.15c0.36-0.12,0.62-0.32,0.8-0.6
			c0.17-0.29,0.26-0.66,0.26-1.13V14.21c0-0.44-0.09-0.84-0.28-1.2c-0.19-0.37-0.45-0.66-0.78-0.9c-0.24-0.16-0.53-0.27-0.87-0.34
			c-0.33-0.07-0.69-0.12-1.07-0.15v-1.27l6.31-0.42l0.27,0.27v2.67h0.09c0.31-0.31,0.69-0.67,1.16-1.1c0.46-0.43,0.9-0.78,1.31-1.05
			c0.48-0.31,1.04-0.56,1.69-0.77c0.65-0.2,1.39-0.31,2.21-0.31c1.82,0,3.17,0.57,4.05,1.7c0.88,1.13,1.32,2.64,1.32,4.53v9.87
			c0,0.45,0.08,0.81,0.23,1.09c0.15,0.27,0.42,0.49,0.79,0.64c0.31,0.13,0.58,0.22,0.8,0.27c0.23,0.05,0.54,0.09,0.94,0.12
			L75.99,29.14L75.99,29.14z"/>
	</g>
	<g>
		<path fill="#FFFFFF" d="M96.28,28.79c-0.6,0.22-1.13,0.4-1.59,0.53c-0.45,0.13-0.97,0.2-1.55,0.2c-1,0-1.8-0.23-2.39-0.7
			c-0.59-0.47-0.98-1.15-1.14-2.05h-0.12c-0.83,0.92-1.73,1.63-2.69,2.12c-0.95,0.49-2.1,0.73-3.45,0.73
			c-1.42,0-2.59-0.44-3.51-1.31c-0.92-0.87-1.38-2.01-1.38-3.42c0-0.73,0.1-1.38,0.31-1.96c0.2-0.58,0.51-1.1,0.92-1.56
			c0.32-0.38,0.74-0.73,1.27-1.03c0.52-0.3,1.02-0.54,1.48-0.72c0.58-0.22,1.74-0.62,3.51-1.21c1.76-0.59,2.95-1.05,3.57-1.38v-1.91
			c0-0.17-0.03-0.49-0.1-0.96c-0.07-0.48-0.22-0.92-0.45-1.35c-0.26-0.48-0.62-0.89-1.09-1.24c-0.47-0.35-1.13-0.53-1.99-0.53
			c-0.59,0-1.14,0.1-1.64,0.3c-0.51,0.2-0.86,0.41-1.07,0.63c0,0.26,0.06,0.63,0.18,1.13c0.12,0.5,0.18,0.96,0.18,1.38
			c0,0.45-0.2,0.86-0.6,1.23c-0.4,0.37-0.96,0.56-1.69,0.56c-0.64,0-1.11-0.23-1.41-0.68c-0.3-0.45-0.45-0.97-0.45-1.53
			c0-0.59,0.21-1.15,0.63-1.69c0.41-0.54,0.96-1.02,1.63-1.44c0.58-0.36,1.28-0.66,2.1-0.91c0.82-0.25,1.62-0.37,2.41-0.37
			c1.07,0,2.02,0.08,2.82,0.22c0.8,0.15,1.53,0.46,2.18,0.95c0.66,0.48,1.15,1.12,1.49,1.93c0.34,0.81,0.51,1.87,0.51,3.14
			c0,1.84-0.02,3.46-0.06,4.88c-0.04,1.42-0.06,2.96-0.06,4.64c0,0.5,0.09,0.9,0.26,1.19c0.17,0.3,0.44,0.55,0.8,0.75
			c0.19,0.12,0.5,0.18,0.91,0.19c0.41,0.01,0.84,0.02,1.28,0.02V28.79L96.28,28.79L96.28,28.79z M89.57,18.63
			c-1.09,0.32-2.05,0.63-2.87,0.95c-0.82,0.31-1.59,0.7-2.29,1.16c-0.64,0.44-1.15,0.95-1.52,1.55c-0.37,0.6-0.56,1.31-0.56,2.13
			c0,1.06,0.28,1.85,0.84,2.35c0.56,0.5,1.27,0.75,2.13,0.75c0.91,0,1.71-0.22,2.41-0.66c0.69-0.44,1.27-0.96,1.75-1.58L89.57,18.63
			z"/>
	</g>
	<g>
		<path fill="#FFFFFF" d="M119.11,29.14h-9.27v-1.27c0.29-0.02,0.62-0.05,0.97-0.08c0.35-0.02,0.64-0.08,0.88-0.15
			c0.36-0.12,0.63-0.31,0.8-0.6c0.17-0.29,0.26-0.66,0.26-1.12v-9.76c0-1.35-0.32-2.38-0.95-3.11c-0.63-0.73-1.41-1.1-2.33-1.1
			c-0.68,0-1.3,0.1-1.87,0.32c-0.56,0.21-1.07,0.47-1.5,0.78c-0.42,0.29-0.76,0.61-1.01,0.95c-0.25,0.34-0.44,0.61-0.55,0.82v10.9
			c0,0.44,0.09,0.8,0.27,1.08c0.18,0.28,0.45,0.5,0.81,0.66c0.27,0.13,0.56,0.23,0.88,0.29c0.31,0.06,0.64,0.11,0.97,0.13v1.27
			h-9.29v-1.27c0.3-0.02,0.6-0.05,0.91-0.08c0.31-0.02,0.59-0.08,0.82-0.15c0.36-0.12,0.62-0.32,0.8-0.6
			c0.17-0.29,0.26-0.66,0.26-1.13V14.21c0-0.44-0.09-0.84-0.28-1.2c-0.19-0.37-0.45-0.66-0.78-0.9c-0.24-0.16-0.53-0.27-0.87-0.34
			c-0.33-0.07-0.69-0.12-1.07-0.15v-1.27l6.31-0.42l0.27,0.27v2.67h0.09c0.31-0.31,0.69-0.67,1.16-1.1c0.46-0.43,0.9-0.78,1.31-1.05
			c0.48-0.31,1.04-0.56,1.69-0.77c0.65-0.2,1.39-0.31,2.21-0.31c1.82,0,3.17,0.57,4.04,1.7c0.88,1.13,1.32,2.64,1.32,4.53v9.87
			c0,0.45,0.08,0.81,0.23,1.09c0.15,0.27,0.42,0.49,0.79,0.64c0.31,0.13,0.57,0.22,0.8,0.27c0.23,0.05,0.53,0.09,0.93,0.12
			L119.11,29.14L119.11,29.14z"/>
	</g>
	<g>
		<path fill="#FFFFFF" d="M139.94,19.47c0,1.33-0.21,2.64-0.63,3.94c-0.42,1.29-1.03,2.38-1.81,3.28c-0.89,1.03-1.91,1.79-3.08,2.29
			c-1.17,0.5-2.48,0.75-3.93,0.75c-1.21,0-2.35-0.23-3.45-0.68c-1.09-0.45-2.06-1.12-2.91-1.99c-0.84-0.86-1.5-1.91-1.99-3.14
			c-0.5-1.24-0.74-2.63-0.74-4.16c0-2.96,0.86-5.39,2.59-7.27c1.73-1.88,3.99-2.82,6.79-2.82c2.66,0,4.85,0.89,6.57,2.69
			C139.08,14.11,139.94,16.49,139.94,19.47z M135.95,19.5c0-0.96-0.1-1.98-0.29-3.05c-0.19-1.07-0.48-1.98-0.87-2.72
			c-0.41-0.8-0.95-1.44-1.62-1.91c-0.67-0.48-1.48-0.72-2.45-0.72c-0.99,0-1.83,0.24-2.53,0.73c-0.7,0.49-1.27,1.16-1.71,2
			c-0.41,0.78-0.7,1.67-0.87,2.67c-0.17,1-0.25,1.97-0.25,2.9c0,1.23,0.1,2.37,0.3,3.41c0.2,1.05,0.52,1.98,0.95,2.8
			c0.44,0.82,0.99,1.46,1.65,1.93c0.66,0.47,1.48,0.7,2.45,0.7c1.6,0,2.88-0.77,3.82-2.32C135.49,24.38,135.95,22.23,135.95,19.5z"
			/>
	</g>
	<g>
		<path fill="#FFFFFF" d="M154.38,28.31c-0.83,0.35-1.62,0.64-2.36,0.88c-0.74,0.24-1.66,0.35-2.73,0.35c-1.59,0-2.71-0.4-3.36-1.2
			c-0.65-0.8-0.97-1.94-0.97-3.4V12.1h-3.42v-1.84h3.5V4.35h3.5v5.91h5.44v1.85h-5.4v10.6c0,0.8,0.03,1.46,0.09,1.99
			c0.06,0.53,0.19,0.99,0.41,1.39c0.2,0.37,0.51,0.65,0.92,0.85c0.41,0.19,0.96,0.29,1.66,0.29c0.32,0,0.79-0.03,1.41-0.09
			c0.62-0.06,1.06-0.13,1.32-0.22V28.31L154.38,28.31z"/>
	</g>
	<g>
		<path fill="#FFFFFF" d="M165.46,29.14h-9.15v-1.27c0.3-0.02,0.6-0.05,0.91-0.08c0.31-0.02,0.59-0.08,0.82-0.15
			c0.36-0.12,0.62-0.32,0.8-0.6c0.18-0.29,0.26-0.66,0.26-1.13v-11.7c0-0.41-0.09-0.78-0.28-1.12c-0.19-0.34-0.45-0.62-0.78-0.85
			c-0.24-0.15-0.59-0.28-1.06-0.4c-0.47-0.11-0.89-0.17-1.27-0.2v-1.27l6.69-0.42l0.27,0.27v15.46c0,0.45,0.09,0.82,0.25,1.12
			c0.17,0.3,0.44,0.51,0.81,0.66c0.28,0.12,0.56,0.21,0.82,0.28c0.27,0.07,0.57,0.12,0.9,0.15v1.27H165.46z M163.06,2.46
			c0,0.73-0.24,1.37-0.72,1.91c-0.48,0.55-1.08,0.82-1.78,0.82c-0.66,0-1.22-0.26-1.7-0.78c-0.48-0.52-0.72-1.11-0.72-1.78
			c0-0.7,0.24-1.32,0.72-1.85c0.48-0.52,1.05-0.79,1.7-0.79c0.73,0,1.33,0.25,1.79,0.74C162.82,1.23,163.06,1.81,163.06,2.46z"/>
	</g>
	<g>
		<path fill="#FFFFFF" d="M182.82,29.14h-15.34v-1.02l10.75-16.38h-2.66c-1.11,0-1.99,0.02-2.62,0.06
			c-0.63,0.04-1.21,0.17-1.73,0.38c-0.36,0.14-0.7,0.55-1.01,1.21c-0.31,0.67-0.59,1.54-0.82,2.62h-1.17v-5.83h14.5v0.79
			l-10.9,16.62c0.46,0.01,0.97,0.02,1.52,0.03c0.55,0.01,1.15,0.01,1.78,0.01c0.51,0,1.05-0.01,1.6-0.02
			c0.56-0.01,1.27-0.05,2.15-0.09c0.51-0.03,0.9-0.2,1.16-0.52c0.26-0.32,0.46-0.69,0.6-1.1c0.14-0.37,0.31-0.88,0.51-1.54
			c0.2-0.66,0.37-1.29,0.53-1.91h1.15V29.14L182.82,29.14z"/>
	</g>
	<g>
		<path fill="#FFFFFF" d="M194.48,29.14h-9.15v-1.27c0.3-0.02,0.6-0.05,0.91-0.08c0.31-0.02,0.59-0.08,0.82-0.15
			c0.36-0.12,0.63-0.32,0.8-0.6c0.17-0.29,0.26-0.66,0.26-1.13v-11.7c0-0.41-0.09-0.78-0.28-1.12c-0.19-0.34-0.45-0.62-0.78-0.85
			c-0.24-0.15-0.59-0.28-1.06-0.4c-0.46-0.11-0.88-0.17-1.27-0.2v-1.27l6.69-0.42l0.27,0.27v15.46c0,0.45,0.09,0.82,0.26,1.12
			c0.17,0.3,0.44,0.51,0.81,0.66c0.28,0.12,0.55,0.21,0.82,0.28c0.27,0.07,0.56,0.12,0.9,0.15V29.14L194.48,29.14z M192.07,2.46
			c0,0.73-0.24,1.37-0.72,1.91c-0.48,0.55-1.07,0.82-1.78,0.82c-0.65,0-1.22-0.26-1.7-0.78c-0.48-0.52-0.72-1.11-0.72-1.78
			c0-0.7,0.24-1.32,0.72-1.85c0.48-0.52,1.05-0.79,1.7-0.79c0.73,0,1.33,0.25,1.8,0.74C191.84,1.23,192.07,1.81,192.07,2.46z"/>
	</g>
	<g>
		<path fill="#FFFFFF" d="M213.68,24.67c-0.8,1.52-1.86,2.72-3.19,3.62c-1.33,0.9-2.87,1.34-4.6,1.34c-1.52,0-2.87-0.27-4.01-0.81
			c-1.14-0.54-2.09-1.27-2.83-2.19c-0.75-0.92-1.3-2-1.66-3.23c-0.37-1.23-0.54-2.53-0.54-3.91c0-1.23,0.2-2.44,0.58-3.63
			c0.39-1.19,0.97-2.26,1.72-3.2c0.73-0.91,1.64-1.65,2.72-2.2c1.08-0.56,2.3-0.84,3.64-0.84c1.38,0,2.57,0.22,3.56,0.65
			c0.99,0.44,1.79,1.03,2.4,1.79c0.59,0.71,1.03,1.56,1.32,2.54c0.29,0.98,0.43,2.03,0.43,3.17v1.27h-12.56
			c0,1.25,0.12,2.38,0.35,3.39c0.24,1.02,0.61,1.91,1.12,2.68c0.5,0.74,1.15,1.33,1.97,1.76c0.81,0.43,1.77,0.65,2.88,0.65
			c1.14,0,2.13-0.27,2.95-0.8c0.83-0.53,1.63-1.5,2.4-2.89L213.68,24.67z M209.43,17.44c0-0.72-0.06-1.48-0.18-2.3
			c-0.12-0.82-0.31-1.5-0.59-2.05c-0.3-0.59-0.7-1.06-1.21-1.44c-0.51-0.37-1.17-0.55-1.98-0.55c-1.34,0-2.46,0.56-3.35,1.68
			c-0.89,1.12-1.38,2.67-1.45,4.67L209.43,17.44L209.43,17.44z"/>
	</g>
</g>
<g>
	<path fill="#939A9F" d="M5.38,38.47c0,0.69-0.14,1.27-0.42,1.72c-0.28,0.45-0.67,0.77-1.17,0.93l1.28,1.34H4.16l-1.05-1.21l-0.2,0
		c-0.8,0-1.41-0.24-1.84-0.73c-0.43-0.49-0.65-1.17-0.65-2.06c0-0.88,0.22-1.56,0.65-2.04c0.43-0.48,1.05-0.73,1.84-0.73
		c0.77,0,1.38,0.24,1.81,0.74C5.16,36.93,5.38,37.61,5.38,38.47z M1.08,38.47c0,0.73,0.16,1.29,0.47,1.66
		c0.31,0.38,0.76,0.56,1.35,0.56c0.6,0,1.05-0.19,1.35-0.56c0.31-0.38,0.46-0.93,0.46-1.66c0-0.73-0.15-1.28-0.45-1.65
		c-0.3-0.38-0.76-0.56-1.35-0.56c-0.6,0-1.05,0.19-1.37,0.56C1.24,37.21,1.08,37.75,1.08,38.47z"/>
	<path fill="#939A9F" d="M11.76,35.78v3.49c0,0.62-0.19,1.1-0.56,1.45c-0.37,0.35-0.88,0.53-1.53,0.53c-0.65,0-1.15-0.17-1.51-0.53
		c-0.35-0.35-0.53-0.84-0.53-1.46v-3.47h0.63v3.52c0,0.45,0.12,0.8,0.37,1.03c0.24,0.24,0.61,0.36,1.09,0.36
		c0.45,0,0.81-0.12,1.05-0.37s0.37-0.59,0.37-1.04v-3.51H11.76L11.76,35.78z"/>
	<path fill="#939A9F" d="M18.97,38.47c0,0.86-0.22,1.54-0.66,2.03c-0.44,0.49-1.04,0.74-1.82,0.74c-0.8,0-1.41-0.24-1.84-0.73
		c-0.43-0.49-0.65-1.17-0.65-2.06c0-0.88,0.22-1.56,0.65-2.04c0.43-0.48,1.05-0.73,1.84-0.73c0.77,0,1.38,0.24,1.81,0.74
		C18.76,36.93,18.97,37.61,18.97,38.47z M14.68,38.47c0,0.73,0.16,1.29,0.46,1.66c0.31,0.38,0.76,0.56,1.35,0.56
		c0.6,0,1.05-0.19,1.35-0.56c0.31-0.38,0.46-0.93,0.46-1.66c0-0.73-0.15-1.28-0.45-1.65c-0.3-0.38-0.76-0.56-1.35-0.56
		c-0.6,0-1.05,0.19-1.37,0.56C14.83,37.21,14.68,37.75,14.68,38.47z"/>
	<path fill="#939A9F" d="M22.93,41.17h-0.63v-4.83H20.6v-0.56h4.04v0.56h-1.71V41.17z"/>
	<path fill="#939A9F" d="M26.56,41.17v-5.39h0.63v5.39H26.56z"/>
	<path fill="#939A9F" d="M34.08,38.42c0,0.89-0.24,1.57-0.73,2.04s-1.18,0.71-2.09,0.71h-1.49v-5.39h1.65c0.84,0,1.49,0.23,1.95,0.7
		C33.84,36.94,34.08,37.59,34.08,38.42z M33.41,38.45c0-0.7-0.17-1.23-0.53-1.59c-0.35-0.35-0.88-0.54-1.58-0.54H30.4v4.31h0.76
		c0.75,0,1.31-0.19,1.69-0.55C33.22,39.71,33.41,39.17,33.41,38.45z"/>
	<path fill="#939A9F" d="M36.38,41.17v-5.39h0.63v5.39H36.38z"/>
	<path fill="#939A9F" d="M42.98,41.17l-0.67-1.71h-2.16l-0.66,1.71h-0.63l2.13-5.42h0.53l2.12,5.42H42.98z M42.12,38.9l-0.63-1.67
		c-0.08-0.21-0.16-0.47-0.25-0.78c-0.05,0.24-0.13,0.49-0.23,0.78l-0.63,1.67H42.12z"/>
	<path fill="#939A9F" d="M49.69,41.17h-0.71l-2.95-4.53H46c0.04,0.53,0.06,1.02,0.06,1.46v3.07h-0.58v-5.39h0.71l2.94,4.51h0.03
		c-0.01-0.06-0.02-0.28-0.03-0.64c-0.02-0.36-0.02-0.62-0.02-0.77v-3.1h0.59V41.17z"/>
	<path fill="#939A9F" d="M56.96,38.47c0,0.86-0.22,1.54-0.66,2.03c-0.44,0.49-1.04,0.74-1.82,0.74c-0.8,0-1.41-0.24-1.84-0.73
		C52.22,40.03,52,39.35,52,38.47c0-0.88,0.22-1.56,0.65-2.04c0.43-0.48,1.05-0.73,1.84-0.73c0.77,0,1.38,0.24,1.81,0.74
		C56.74,36.93,56.96,37.61,56.96,38.47z M52.66,38.47c0,0.73,0.16,1.29,0.47,1.66c0.31,0.38,0.76,0.56,1.35,0.56
		c0.6,0,1.05-0.19,1.35-0.56c0.31-0.38,0.46-0.93,0.46-1.66c0-0.73-0.15-1.28-0.45-1.65c-0.3-0.38-0.75-0.56-1.35-0.56
		c-0.6,0-1.05,0.19-1.37,0.56C52.82,37.21,52.66,37.75,52.66,38.47z"/>
	<path fill="#939A9F" d="M67.01,38.47c0,0.86-0.22,1.54-0.66,2.03c-0.44,0.49-1.04,0.74-1.82,0.74c-0.8,0-1.41-0.24-1.84-0.73
		c-0.43-0.49-0.65-1.17-0.65-2.06c0-0.88,0.21-1.56,0.65-2.04c0.43-0.48,1.05-0.73,1.84-0.73c0.77,0,1.38,0.24,1.81,0.74
		C66.79,36.93,67.01,37.61,67.01,38.47z M62.71,38.47c0,0.73,0.16,1.29,0.46,1.66c0.31,0.38,0.76,0.56,1.35,0.56
		c0.6,0,1.05-0.19,1.35-0.56c0.31-0.38,0.46-0.93,0.46-1.66c0-0.73-0.15-1.28-0.45-1.65c-0.3-0.38-0.76-0.56-1.35-0.56
		c-0.6,0-1.05,0.19-1.37,0.56C62.87,37.21,62.71,37.75,62.71,38.47z"/>
	<path fill="#939A9F" d="M73.53,41.17h-0.71l-2.95-4.53h-0.03c0.04,0.53,0.06,1.02,0.06,1.46v3.07h-0.58v-5.39h0.71l2.94,4.51H73
		c-0.01-0.06-0.02-0.28-0.03-0.64c-0.02-0.36-0.02-0.62-0.02-0.77v-3.1h0.59V41.17z"/>
	<path fill="#939A9F" d="M76.12,41.17v-5.39h0.63v4.82h2.38v0.57H76.12z"/>
	<path fill="#939A9F" d="M81.14,41.17v-5.39h0.63v5.39H81.14z"/>
	<path fill="#939A9F" d="M88.57,41.17h-0.71l-2.95-4.53h-0.03c0.04,0.53,0.06,1.02,0.06,1.46v3.07h-0.58v-5.39h0.71L88,40.29h0.03
		c-0.01-0.06-0.02-0.28-0.04-0.64c-0.02-0.36-0.02-0.62-0.02-0.77v-3.1h0.59V41.17z"/>
	<path fill="#939A9F" d="M94.16,41.17h-3.01v-5.39h3.01v0.56h-2.38v1.74h2.24v0.55h-2.24v1.99h2.38V41.17z"/>
	<path fill="#939A9F" d="M103.83,38.42c0,0.89-0.25,1.57-0.73,2.04s-1.18,0.71-2.09,0.71h-1.49v-5.39h1.65
		c0.84,0,1.49,0.23,1.96,0.7C103.6,36.94,103.83,37.59,103.83,38.42z M103.17,38.45c0-0.7-0.17-1.23-0.53-1.59
		c-0.35-0.36-0.88-0.54-1.57-0.54h-0.91v4.31h0.76c0.75,0,1.31-0.19,1.69-0.55C102.98,39.72,103.17,39.17,103.17,38.45z"/>
	<path fill="#939A9F" d="M109.14,41.17h-3v-5.39h3v0.56h-2.38v1.74H109v0.55h-2.24v1.99h2.38V41.17z"/>
	<path fill="#939A9F" d="M111.44,41.17v-5.39h0.63v4.82h2.38v0.57H111.44z"/>
	<path fill="#939A9F" d="M116.47,41.17v-5.39h0.63v4.82h2.38v0.57H116.47z"/>
	<path fill="#939A9F" d="M124.88,41.17l-0.67-1.71h-2.16l-0.66,1.71h-0.63l2.13-5.42h0.53l2.12,5.42H124.88z M124.01,38.9
		l-0.63-1.67c-0.08-0.21-0.16-0.47-0.25-0.78c-0.05,0.24-0.13,0.49-0.23,0.78l-0.63,1.67H124.01z"/>
	<path fill="#939A9F" d="M133.86,37.36c0,0.55-0.19,0.96-0.56,1.26c-0.37,0.3-0.91,0.44-1.6,0.44h-0.63v2.12h-0.63v-5.4h1.4
		C133.19,35.78,133.86,36.3,133.86,37.36z M131.06,38.52h0.56c0.56,0,0.96-0.09,1.21-0.27c0.25-0.18,0.37-0.46,0.37-0.87
		c0-0.35-0.12-0.62-0.35-0.8c-0.23-0.17-0.6-0.26-1.09-0.26h-0.7V38.52z"/>
	<path fill="#939A9F" d="M136.09,41.17v-5.39h0.63v5.39H136.09z"/>
	<path fill="#939A9F" d="M142.7,41.17l-0.67-1.71h-2.16l-0.66,1.71h-0.63l2.13-5.42h0.53l2.12,5.42H142.7z M141.82,38.9l-0.63-1.67
		c-0.08-0.21-0.16-0.47-0.25-0.78c-0.05,0.24-0.13,0.49-0.23,0.78l-0.63,1.67H141.82z"/>
	<path fill="#939A9F" d="M149.4,41.17h-0.72l-2.95-4.53h-0.03c0.04,0.53,0.06,1.02,0.06,1.46v3.07h-0.58v-5.39h0.71l2.94,4.51h0.03
		c-0.01-0.06-0.02-0.28-0.03-0.64c-0.02-0.36-0.02-0.62-0.02-0.77v-3.1h0.59V41.17z"/>
	<path fill="#939A9F" d="M155.38,41.17l-0.67-1.71h-2.16l-0.66,1.71h-0.63l2.13-5.42h0.53l2.12,5.42H155.38z M154.51,38.9
		l-0.63-1.67c-0.08-0.21-0.16-0.47-0.25-0.78c-0.05,0.24-0.13,0.49-0.23,0.78l-0.63,1.67H154.51z"/>
	<path fill="#939A9F" d="M161.56,41.17h-0.63v-5.39h3v0.56h-2.38v1.98h2.24v0.56h-2.24V41.17L161.56,41.17z"/>
	<path fill="#939A9F" d="M165.94,41.17v-5.39h0.63v5.39H165.94z"/>
	<path fill="#939A9F" d="M173.83,38.47c0,0.86-0.22,1.54-0.66,2.03c-0.44,0.49-1.04,0.74-1.82,0.74c-0.79,0-1.41-0.24-1.84-0.73
		c-0.43-0.49-0.64-1.17-0.64-2.06c0-0.88,0.21-1.56,0.65-2.04c0.43-0.48,1.05-0.73,1.84-0.73c0.77,0,1.38,0.24,1.81,0.74
		C173.62,36.93,173.83,37.61,173.83,38.47z M169.53,38.47c0,0.73,0.16,1.29,0.46,1.66c0.31,0.38,0.76,0.56,1.35,0.56
		c0.6,0,1.05-0.19,1.35-0.56c0.31-0.38,0.46-0.93,0.46-1.66c0-0.73-0.15-1.28-0.45-1.65c-0.3-0.37-0.76-0.56-1.35-0.56
		c-0.6,0-1.05,0.19-1.36,0.56C169.69,37.2,169.53,37.75,169.53,38.47z"/>
	<path fill="#939A9F" d="M176.77,38.93v2.24h-0.63v-5.39h1.48c0.66,0,1.15,0.13,1.46,0.38c0.31,0.25,0.48,0.63,0.48,1.14
		c0,0.71-0.36,1.2-1.09,1.45l1.47,2.42h-0.74l-1.31-2.24H176.77z M176.77,38.4h0.86c0.44,0,0.77-0.09,0.98-0.26
		c0.21-0.17,0.31-0.44,0.31-0.79c0-0.35-0.1-0.62-0.31-0.77c-0.21-0.16-0.55-0.24-1.01-0.24h-0.81L176.77,38.4L176.77,38.4z"/>
	<path fill="#939A9F" d="M184.92,41.17h-3v-5.39h3v0.56h-2.38v1.74h2.24v0.55h-2.24v1.99h2.38V41.17z"/>
	<path fill="#939A9F" d="M191.43,41.17h-0.71l-2.95-4.53h-0.03c0.04,0.53,0.06,1.02,0.06,1.46v3.07h-0.58v-5.39h0.71l2.94,4.51h0.03
		c-0.01-0.06-0.02-0.28-0.04-0.64c-0.02-0.36-0.02-0.62-0.02-0.77v-3.1h0.59V41.17z"/>
	<path fill="#939A9F" d="M195.68,41.17h-0.63v-4.83h-1.71v-0.56h4.04v0.56h-1.71V41.17z"/>
	<path fill="#939A9F" d="M199.3,41.17v-5.39h0.63v5.39H199.3z"/>
	<path fill="#939A9F" d="M206.72,41.17h-0.71l-2.95-4.53h-0.03c0.04,0.53,0.06,1.02,0.06,1.46v3.07h-0.58v-5.39h0.71l2.94,4.51h0.03
		c-0.01-0.06-0.02-0.28-0.04-0.64c-0.02-0.36-0.02-0.62-0.02-0.77v-3.1h0.59V41.17z"/>
	<path fill="#939A9F" d="M212.7,41.17l-0.67-1.71h-2.16l-0.66,1.71h-0.63l2.13-5.42h0.53l2.12,5.42H212.7z M211.83,38.9l-0.63-1.67
		c-0.08-0.21-0.16-0.47-0.25-0.78c-0.05,0.24-0.13,0.49-0.23,0.78l-0.63,1.67H211.83z"/>
</g>
</svg>
