<?xml version="1.0" encoding="utf-8"?>
<!-- Generator: Adobe Illustrator 16.0.0, SVG Export Plug-In . SVG Version: 6.00 Build 0)  -->
<!DOCTYPE svg PUBLIC "-//W3C//DTD SVG 1.1//EN" "http://www.w3.org/Graphics/SVG/1.1/DTD/svg11.dtd">
<svg version="1.1" id="Layer_1" xmlns="http://www.w3.org/2000/svg" xmlns:xlink="http://www.w3.org/1999/xlink" x="0px" y="0px"
	 width="38px" height="42px" viewBox="-12.28 303.33 38 42" enable-background="new -12.28 303.33 38 42" xml:space="preserve">
<path fill="#59AFD6" d="M25.72,312.03c-3.82-5.27-10-8.71-17-8.71c-11.6,0-21,9.4-21,21s9.4,21,21,21c7,0,13.18-3.44,17-8.71V312.03
	z"/>
<g>
	<path fill="#FFFFFF" d="M17.25,317.88h-4.29c-0.31-1.21-0.61-2.42-1.84-2.42h-4.9c-1.23,0-1.53,1.21-1.84,2.42H0.09
		c-0.67,0-1.23,0.54-1.23,1.21v10.87c0,0.67,0.55,1.21,1.23,1.21h17.17c0.67,0,1.23-0.54,1.23-1.21v-10.87
		C18.48,318.42,17.93,317.88,17.25,317.88z M8.67,329.88c-3,0-5.44-2.4-5.44-5.36s2.44-5.36,5.44-5.36s5.44,2.4,5.44,5.36
		S11.68,329.88,8.67,329.88z M17.25,321.5H14.8v-1.21h2.45V321.5z"/>
	<path fill="#FFFFFF" d="M8.67,320.6c-2.2,0-3.98,1.76-3.98,3.92s1.78,3.92,3.98,3.92s3.98-1.76,3.98-3.92S10.87,320.6,8.67,320.6z
		 M8.67,326.21c-0.91,0-1.65-0.74-1.65-1.65s0.74-1.65,1.65-1.65s1.65,0.74,1.65,1.65S9.59,326.21,8.67,326.21z"/>
</g>
</svg>
