<?xml version="1.0" encoding="utf-8"?>
<!-- Generator: Adobe Illustrator 16.0.0, SVG Export Plug-In . SVG Version: 6.00 Build 0)  -->
<!DOCTYPE svg PUBLIC "-//W3C//DTD SVG 1.1//EN" "http://www.w3.org/Graphics/SVG/1.1/DTD/svg11.dtd">
<svg version="1.1" id="Layer_1" xmlns="http://www.w3.org/2000/svg" xmlns:xlink="http://www.w3.org/1999/xlink" x="0px" y="0px"
	 width="38px" height="42px" viewBox="-12.28 303.33 38 42" enable-background="new -12.28 303.33 38 42" xml:space="preserve">
<path fill="#59AFD6" d="M25.72,312.03c-3.82-5.27-10-8.71-17-8.71c-11.6,0-21,9.4-21,21s9.4,21,21,21c7,0,13.18-3.44,17-8.71V312.03
	z"/>
<path fill="#FFFFFF" d="M19.56,327.84c0,0.3-0.13,0.55-0.28,0.55l-5.43-3c-0.16,0-0.28-0.25-0.28-0.55v-1.02
	c0-0.3,0.13-0.55,0.28-0.55l5.43-3c0.16,0,0.28,0.25,0.28,0.55V327.84z"/>
<path fill="#FFFFFF" d="M13.31,328.48c0,0.74-0.6,1.35-1.35,1.35H-1.09c-0.74,0-1.35-0.6-1.35-1.35v-8.31c0-0.74,0.6-1.35,1.35-1.35
	h13.06c0.74,0,1.35,0.6,1.35,1.35V328.48z"/>
</svg>
